<svg xmlns="http://www.w3.org/2000/svg" height="2048" preserveAspectRatio="none" style="display: block;" version="1.1" viewBox="0 0 2048 2048" width="2048">
<path d="M 960.226 563.93 C 1000.21 541.515 1046.09 532.959 1090.39 547.243 C 1104.85 551.904 1117.9 558.387 1131.81 564.319 C 1133.92 606.146 1145.93 646.875 1166.85 683.153 C 1179.1 704.09 1202.46 734.505 1215.87 755.9 C 1216.82 758.749 1206.28 764.595 1203.85 766.363 C 1138.17 814.223 1097.93 888.373 1075.96 965.278 C 1073.3 974.597 1074.07 987.187 1068.07 995.017 C 1068.57 1010.85 1070.19 1017.39 1059.93 1029.71 C 1048.29 1023.51 1052.55 999.361 1053.94 987.951 C 1056.08 970.468 1052.76 956.128 1052.65 938.985 C 1052.36 891.837 1051.32 844.617 1051.31 797.471 C 1051.31 795.233 1052.15 794.017 1053.34 792.252 C 1056.46 790.781 1056.15 788.095 1059.11 787.418 C 1061.99 786.76 1064.34 785.179 1066.93 783.8 C 1071.76 781.22 1075.9 773.193 1079.32 768.712 C 1080.5 759.097 1080.72 748.333 1079.52 738.705 C 1074.77 733.218 1072.06 728.705 1066.64 723.807 C 1061.9 718.439 1058.57 721.328 1052.48 717.991 C 1047.73 715.385 1034.81 719.525 1028.76 720.555 C 1017.71 734.032 1015.15 729.303 1010.35 747.508 L 1008.69 753.95 C 1010.59 759.354 1011.83 765.037 1013.94 769.989 C 1019.3 782.573 1023.56 783.299 1033.69 788.507 L 1036.5 791.127 C 1036.66 807.914 1035.93 823.188 1035.09 839.993 L 1034.67 833.506 C 1033.16 860.764 1033.95 892.303 1033.79 919.974 C 1033.68 937.519 1032.89 969.128 1034.71 985.156 L 1034.82 984.551 C 1035.96 997.978 1037.39 1011.78 1036.67 1025.23 C 1034.83 1026.78 1035.57 1026.33 1033.32 1027.11 L 1032.82 1028 L 1030.01 1030.46 C 1019.17 1025.21 1025.02 1014.34 1022.86 1005.57 C 1021.25 999.059 1019.63 992.757 1018.12 986.182 C 1001.47 914.092 965.728 847.812 914.64 794.292 C 902.478 781.655 891.336 772.108 876.769 762.355 C 874.806 761.041 875.091 755.036 875.028 752.63 C 906.706 724.705 945.75 650.874 954.253 609.324 C 956.185 599.885 959.064 574.731 960.226 563.93 z" fill="rgb(50,14,137)" transform="translate(0,0)"></path>
<path d="M 913.713 1308.05 C 921.168 1306.95 931.252 1308.66 942.122 1307.27 C 944.711 1310.52 945.248 1311 948.486 1313.66 C 947.593 1344.04 948.005 1376.44 947.92 1406.98 C 947.779 1459.34 947.96 1511.7 948.462 1564.06 C 938.284 1564.98 925.726 1564.67 915.535 1564.27 C 915.464 1557.38 915.861 1552.31 913.237 1546.01 C 912.608 1545.47 911.979 1544.93 911.35 1544.39 C 907.713 1547.15 897.857 1554.84 894.891 1557 C 882.193 1566.28 872.243 1567.53 857.293 1568.48 C 844.514 1569.29 819.776 1566.1 810.307 1557.13 C 802.958 1554.13 790.524 1542.63 785.775 1535.27 C 736.428 1458.75 794.837 1349 890.147 1391.15 C 896.493 1393.95 900.745 1406.47 909.549 1408.03 C 915.959 1401.51 907.184 1321.48 913.713 1308.05 z M 857.156 1535.84 C 893.018 1537 911.821 1514.13 912.016 1479.57 C 912.067 1470.44 911.717 1461.32 911.436 1452.2 C 902.062 1439.1 900.007 1422.74 880.459 1416.44 C 873.836 1414.31 866.561 1412.19 859.57 1412.47 C 811.227 1416.19 793.338 1456.62 807.563 1501.66 C 813.534 1520.57 836.623 1537 857.156 1535.84 z" fill="rgb(50,14,137)" transform="translate(0,0)"></path>
<path d="M 1146.2 1381.33 C 1155.84 1381.81 1170.51 1383.4 1179.54 1386.28 C 1269.31 1414.96 1250.8 1569.09 1151.86 1568.35 C 1066.26 1569.51 1033.38 1477.05 1080.12 1411.89 C 1095.64 1390.25 1121.12 1384.63 1146.2 1381.33 z M 1160.38 1534.73 C 1165.29 1532.08 1165.96 1532.29 1171.49 1531.8 L 1172.84 1531.67 C 1179.18 1526.73 1185.22 1522.24 1190.68 1516.28 C 1197.75 1508.56 1198.58 1496.66 1203.94 1488.59 C 1203.63 1443.67 1192.44 1414.34 1140.4 1416.14 C 1137.76 1416.22 1135.13 1416.32 1132.49 1416.44 C 1114 1421.22 1100.78 1437.32 1094.88 1454.89 C 1085.38 1483.17 1099.42 1523.17 1130 1531.94 C 1138.15 1534.27 1152.48 1538.06 1160.38 1534.73 z" fill="rgb(50,14,137)" transform="translate(0,0)"></path>
<path d="M 430.475 1320.29 C 442.646 1320.01 453.532 1319.87 465.709 1320.23 C 466.786 1321.11 471.189 1324.49 471.417 1325.51 C 474.461 1339.13 480.154 1350.94 485.002 1363.97 L 508.204 1428.12 C 510.052 1433.35 513.554 1438.59 515.192 1443.14 L 541.132 1516.36 C 544.073 1524.81 547.746 1527.61 549.128 1537.6 C 550.133 1544.86 561.332 1555.57 555.522 1564.11 C 553.536 1564.98 525.707 1564.41 524.207 1563.48 C 515.18 1557.92 506.75 1517.09 502.491 1509.58 C 495.212 1506.26 472.81 1508.3 462.5 1508.34 C 440.805 1508.41 416.016 1509.06 394.567 1508.05 C 381.851 1520.13 383.106 1549.28 370.082 1564.54 C 362.061 1564.44 339.751 1567.1 335.027 1561.1 C 336.108 1555.02 342.202 1542.12 344.774 1535.69 C 349.504 1523.61 354.111 1511.49 358.593 1499.31 C 373.855 1457.13 389.691 1415.15 406.095 1373.39 C 411.814 1358.56 416.51 1343.25 422.146 1328.43 C 423.321 1325.34 427.788 1322.32 430.475 1320.29 z M 448.655 1476.51 C 455.723 1476.2 483.218 1477 486.151 1476.44 C 492.384 1463.53 479.743 1460.32 479.581 1450.29 C 479.416 1440.12 474.234 1433.9 471.553 1424.56 C 466.883 1408.29 456.198 1392.76 455.332 1376 C 455.162 1372.69 448.966 1364.39 445.42 1362.32 C 442.053 1366.86 441.987 1368.33 441.217 1373.84 C 440.208 1381.06 435.746 1388.06 433.243 1394.95 C 425.768 1415.53 417.32 1435.22 411.717 1456.49 C 409.443 1465.12 402.883 1466.24 405.667 1475.87 C 409.246 1477.23 442.168 1476.31 448.655 1476.51 z" fill="rgb(50,14,137)" transform="translate(0,0)"></path>
<path d="M 1226.05 875.573 C 1233.76 875.355 1238.23 875.259 1245.86 876.023 C 1247.68 877.213 1249.47 878.433 1251.25 879.682 C 1262.31 887.539 1256.94 890.217 1261.56 897.68 C 1266.53 911.231 1261.71 948.626 1262.1 963.995 C 1262.86 994.155 1261.26 1024.8 1261.14 1054.97 L 1261.68 1154.37 C 1261.84 1168.92 1263.84 1192.56 1260.86 1206.37 C 1260.72 1206.66 1259.97 1209.9 1259.96 1210.01 C 1259.13 1217.33 1251.24 1223.13 1245.82 1228.24 C 1231.72 1228.47 1218.28 1229.75 1211.99 1213.92 C 1210.68 1208.82 1208.36 1201.37 1208.34 1196.23 C 1208.16 1156.6 1208.78 1116.64 1208.94 1077.02 L 1209.84 994.121 C 1210.02 964.669 1206.08 931.959 1209.15 901.979 C 1210.55 888.314 1216.04 883.161 1226.05 875.573 z" fill="rgb(50,14,137)" transform="translate(0,0)"></path>
<path d="M 1578.3 1309 C 1582.73 1309.67 1584.84 1311.98 1588.41 1314.81 C 1585.9 1359.12 1589.35 1405.36 1586.89 1449.86 C 1586.64 1454.34 1585.74 1459.51 1590.02 1461.91 C 1596.89 1459.94 1597.19 1453.33 1603.96 1446.14 C 1621.91 1427.04 1643.5 1407.86 1660.31 1388.14 C 1667.91 1387.67 1695.61 1383.18 1699.48 1385.4 C 1701.14 1393.85 1691.39 1397.97 1686.72 1403.65 C 1676.12 1416.51 1637.91 1447.27 1632.89 1460.87 C 1633.91 1469.72 1662.94 1502.9 1669.75 1512.39 C 1675.63 1520.59 1687.42 1536.77 1694.36 1543.7 C 1698.96 1549.53 1708.36 1555.12 1707.31 1562.97 C 1702.32 1566.64 1677.41 1564.29 1669.53 1563.76 C 1657.6 1550.8 1643.13 1527.38 1631.72 1513.11 C 1626.9 1506.16 1620.62 1499.65 1616.07 1492.58 C 1612.85 1487.59 1614.18 1487.17 1607.46 1485.57 C 1600.87 1487.08 1590.12 1501.71 1587.84 1508.25 C 1584.24 1518.55 1592.33 1556.87 1585.91 1563.18 C 1579.12 1565.13 1556.76 1566.66 1552.1 1561.38 C 1550.51 1541.67 1552.07 1507.34 1551.99 1486.15 L 1551.72 1361.83 C 1551.71 1346.48 1551.29 1330.3 1552.24 1315.04 C 1552.71 1307.49 1569.97 1313.4 1578.3 1309 z" fill="rgb(50,14,137)" transform="translate(0,0)"></path>
<path d="M 722.709 547.942 C 732.616 547.478 742.007 545.108 749.885 553.38 C 751.553 555.132 755.798 560.954 755.876 563.243 C 758.604 643.765 764.34 724.466 762.405 805.029 C 760.846 824.651 764.1 846.613 759.863 862.896 C 755.826 865.066 755.401 865.313 751.779 867.868 C 745.849 867.998 739.918 868.017 733.987 867.924 C 718.577 857.856 714.534 858.406 711.122 838.599 C 706.539 824.392 709.021 796.603 709.174 781.242 C 709.323 773.378 707.637 764.79 707.836 756.995 C 709.479 692.577 706.237 627.888 708.102 563.528 C 714.739 553.763 712.193 555.062 722.709 547.942 z" fill="rgb(50,14,137)" transform="translate(0,0)"></path>
<path d="M 711.122 838.599 C 711.482 834.158 711.638 835.019 711.134 830.021 C 709.841 815.987 710.461 800.635 710.868 786.501 C 710.863 786.688 712.199 777.387 712.322 776.436 C 719.707 781.165 727.259 785.629 734.962 789.819 C 740.473 792.78 757.513 800.374 761.224 803.941 L 762.405 805.029 C 760.846 824.651 764.1 846.613 759.863 862.896 C 755.826 865.066 755.401 865.313 751.779 867.868 C 745.849 867.998 739.918 868.017 733.987 867.924 C 718.577 857.856 714.534 858.406 711.122 838.599 z" fill="rgb(156,114,254)" transform="translate(0,0)"></path>
<path d="M 650.475 611.654 C 666.263 592.548 690.463 597.174 696.736 621.69 C 699.734 633.404 699.111 653.907 699.1 666.705 C 699.069 703.296 701.393 740.698 699.734 777.199 C 698.486 804.652 700.817 831.635 700.093 859.143 C 699.501 874.719 703.851 891.112 691.177 903.192 C 686.138 907.947 679.416 910.503 672.491 910.299 C 658.242 909.896 653.628 901.447 647.152 891.167 C 648.52 884.202 647.669 846.725 647.566 837.416 L 646.738 689.961 C 646.769 672.166 644.967 626.532 650.475 611.654 z" fill="rgb(50,14,137)" transform="translate(0,0)"></path>
<path d="M 721.98 1384.19 L 727.714 1384.59 C 729.763 1386.01 732.309 1388.11 732.29 1390.89 C 731.915 1445.8 732.533 1500.91 732.235 1555.88 C 732.217 1559.24 732.233 1560.98 730.615 1563.64 C 723.19 1565.8 710.244 1565.15 702.867 1562.82 C 700.803 1557.8 703.718 1550.27 700.385 1545.14 C 698.27 1545.3 699.052 1544.89 697.614 1546.5 C 683.432 1562.34 668.776 1567.89 647.8 1568.43 C 629.133 1569.04 609.732 1563.41 596.234 1549.98 C 583.78 1537.58 579.949 1523.1 579.214 1506.05 C 578.258 1483.86 578.793 1461.97 578.717 1439.81 C 578.436 1423.97 578.198 1407.65 577.976 1391.81 C 578.394 1385.53 588.357 1385.98 592.437 1386.99 C 599.96 1388.86 603.32 1381.62 610.059 1385.99 C 614.164 1393.01 612.1 1404.68 612.043 1413.07 L 611.972 1467.94 C 611.793 1505.34 607.576 1540.41 660.458 1535.16 C 689.169 1532.31 696.241 1513.12 699.225 1487.97 C 700.505 1477.18 699.107 1464.47 699.576 1453.52 C 698.941 1433.86 701.656 1410.32 697.93 1391.26 C 707.082 1377.51 709.727 1392.23 721.98 1384.19 z" fill="rgb(50,14,137)" transform="translate(0,0)"></path>
<path d="M 1435.51 1382.38 C 1454.31 1380.04 1478.36 1387.06 1491.35 1400.89 C 1510.68 1421.47 1508.66 1445.46 1508.21 1471.56 C 1507.78 1500.24 1508.5 1528.95 1508.39 1557.62 C 1508.36 1566.58 1500.06 1564.5 1493.43 1564.67 C 1488.38 1564.79 1482.92 1565.1 1477.96 1564.81 C 1474.48 1560.71 1475.85 1541.52 1475.86 1535.19 L 1476.03 1480.07 C 1476.11 1448.11 1476.46 1412.51 1433.82 1415.06 C 1421.77 1415.78 1420.82 1415.57 1409.9 1420.42 C 1407.23 1422.85 1397.15 1431.96 1396.25 1435.09 C 1388.28 1463.09 1393.94 1502.97 1392.5 1532.73 C 1392.03 1542.45 1394.27 1554.57 1391.25 1562.1 C 1385.92 1565.67 1362.69 1566.88 1358.2 1561.76 C 1355.35 1558.5 1358.13 1540.58 1358.16 1534.86 C 1358.42 1488.25 1359.59 1441.49 1356.92 1394.94 C 1356.39 1385.65 1366.75 1384.33 1373.76 1384.72 C 1381.53 1385.11 1382.28 1384.15 1387.94 1390.2 C 1387.61 1391.94 1387.29 1393.67 1386.99 1395.42 C 1386.26 1399.75 1385.88 1401.35 1388.38 1404.85 C 1395.7 1405.43 1403.81 1392.14 1410.72 1389.03 C 1418.41 1385.56 1427.23 1383.28 1435.51 1382.38 z" fill="rgb(50,14,137)" transform="translate(0,0)"></path>
<path d="M 775.799 668.001 C 789.738 652.749 797.108 654.34 814.274 660.857 L 820.536 668.836 C 820.177 677.713 821.253 689.356 821.481 698.779 C 821.86 721.82 822.523 744.855 823.471 767.879 C 824.307 788.188 823.561 809.029 825.22 829.194 C 825.873 831.122 827.184 835.041 827.03 836.953 C 825.072 861.362 824.568 885.47 825.475 909.943 C 825.667 915.113 824.39 920.637 823.259 925.721 C 819.877 927.728 816.755 929.434 813.678 931.913 L 799.298 931.885 L 792.319 927.636 C 781.789 921.219 776.169 911.108 776.029 898.785 L 775.27 896.664 C 774.956 871.065 775.061 844.673 774.043 819.001 C 773.9 815.383 775.973 810.656 774.276 806.461 C 772.998 803.3 773.494 799.165 773.684 795.818 C 769.548 758.151 776.648 705.971 775.799 668.001 z" fill="rgb(50,14,137)" transform="translate(0,0)"></path>
<path d="M 776.797 810.114 C 792.246 817.192 807.838 823.953 823.562 830.394 L 825.22 829.194 C 825.873 831.122 827.184 835.041 827.03 836.953 C 825.072 861.362 824.568 885.47 825.475 909.943 C 825.667 915.113 824.39 920.637 823.259 925.721 C 819.877 927.728 816.755 929.434 813.678 931.913 L 799.298 931.885 L 792.319 927.636 C 781.789 921.219 776.169 911.108 776.029 898.785 C 778.93 874.692 773.944 836.091 776.797 810.114 z" fill="rgb(156,114,254)" transform="translate(0,0)"></path>
<path d="M 1345.67 879.972 C 1355.64 878.874 1365.67 875.941 1375.2 882.461 C 1380.73 886.245 1384.24 889.996 1385.21 896.743 L 1385.51 898.691 C 1386.75 906.972 1386.5 917.904 1386.64 926.526 C 1387 944.222 1387.16 961.922 1387.12 979.621 C 1387.24 1011 1387.91 1042.05 1386.27 1073.48 C 1385.95 1079.64 1383.85 1085.81 1382.19 1091.75 C 1373.7 1100.67 1368.67 1105.55 1355.41 1105.67 C 1348.74 1103.19 1342.03 1102.46 1338.55 1094.8 C 1328.33 1072.34 1332.16 1038.3 1332.2 1013.87 L 1332.29 957.001 C 1332.27 931.809 1330.31 911.932 1336.94 887.451 L 1345.67 879.972 z" fill="rgb(156,114,254)" transform="translate(0,0)"></path>
<path d="M 955.683 499.113 C 966.3 482.605 1002.37 474.32 1020.83 470.765 C 1061.36 462.963 1094.42 474.591 1131.12 489.977 L 1130.62 493.856 C 1130.09 497.696 1129.37 523.944 1130.4 525.467 C 1130.91 525.08 1131.06 524.766 1131.43 524.206 C 1131.55 524.363 1131.18 528.325 1133.68 530.577 C 1134.87 531.649 1134.34 540.222 1135.94 544.2 C 1135.88 546.613 1135.68 546.151 1134.49 548.596 C 1128.28 552.928 1117.28 540.576 1110.65 537.708 C 1062.22 516.755 1003.37 518.664 959.949 551.281 L 959.009 551.999 L 957.209 551.519 C 954.406 546.412 955.732 508.514 955.683 499.113 z" fill="rgb(50,14,137)" transform="translate(0,0)"></path>
<path d="M 1179.63 936.032 C 1188.78 936.722 1193.62 942.879 1200.32 949.085 C 1199.28 992.431 1201.21 1037.23 1200.51 1080.7 C 1200.27 1095.42 1201.6 1111.83 1200.41 1126.14 C 1195.45 1131.36 1191.28 1135.63 1185.98 1140.49 C 1179.76 1140.14 1173.97 1140.29 1167.75 1140.4 C 1161.16 1140.13 1155.06 1131.58 1151.33 1126.86 C 1149.03 1094.74 1151.56 1062.34 1150.44 1030.67 C 1149.34 999.69 1146.46 980.597 1160.56 951.336 C 1166.09 939.855 1171.57 942.158 1179.63 936.032 z" fill="rgb(50,14,137)" transform="translate(0,0)"></path>
<path d="M 832.722 836.577 C 836.74 837.414 837.943 837.275 842.124 837.189 C 848.738 841.983 854.675 848.377 860.82 853.598 C 903.44 889.794 884.555 950.603 888.863 999.229 C 889.656 1008.17 892.068 1033.84 886.379 1039.91 C 871.766 1050.67 846.488 1041.84 842.663 1023.16 C 837.324 997.086 839.914 969.34 837.68 942.675 C 837.013 934.719 839.226 924.405 838.792 916.143 C 837.761 889.361 836.508 863.106 832.722 836.577 z" fill="rgb(156,114,254)" transform="translate(0,0)"></path>
<path d="M 1281.51 1320 C 1289.72 1320.47 1304.18 1319.49 1310.7 1321.43 C 1313.39 1325.98 1312.33 1377.65 1312.33 1385.82 L 1312.32 1493.97 L 1312.45 1540.06 C 1312.5 1546.33 1312.61 1553.68 1312.53 1560.01 C 1312.5 1562.68 1310.27 1563.57 1308.13 1565.09 C 1300 1564.59 1282.08 1566.48 1276.44 1564.16 C 1275.28 1552.27 1275.69 1536.85 1275.69 1524.68 L 1275.7 1463.57 C 1275.69 1418.73 1275.46 1373.58 1275.74 1328.72 C 1275.77 1324.45 1278.22 1323 1281.51 1320 z" fill="rgb(50,14,137)" transform="translate(0,0)"></path>
<path d="M 1034.03 1244.73 C 1032.77 1241.97 1028.83 1235.08 1028.73 1232.57 C 1026.91 1186.64 1028.17 1140.27 1028.17 1094.27 C 1028.17 1086.17 1024.56 1071.68 1025.64 1065.36 C 1032.59 1057.78 1042.9 1065.99 1052.34 1063.13 C 1058.21 1061.36 1068.14 1059.5 1073.87 1061.83 C 1078.35 1067.52 1075.93 1116.58 1075.88 1126.68 L 1075.65 1237.73 C 1072.63 1241.11 1071.24 1241.92 1070.94 1246.38 C 1055.85 1252.49 1048.83 1257.16 1034.03 1244.73 z" fill="rgb(50,14,137)" transform="translate(0,0)"></path>
<path d="M 606.761 664.386 C 621.402 663.09 621.983 665.144 632.241 675.518 C 634.228 683.321 635.083 689.127 635.219 697.262 C 636.081 748.708 636.507 800.288 634.883 851.71 C 634.749 855.946 632.84 860.747 631.291 864.712 C 627.41 867.607 623.537 870.683 618.972 872.188 C 596.402 872.753 590.888 859.357 590.978 839.352 C 591.177 794.991 591.714 750.98 589.345 706.656 C 588.241 685.993 587.147 675.011 606.761 664.386 z" fill="rgb(156,114,254)" transform="translate(0,0)"></path>
<path d="M 1411.9 839.467 C 1417.32 839.471 1424.5 839.277 1429.73 839.736 C 1448.35 854.246 1444.37 865.855 1444.22 887.408 L 1443.65 945.505 C 1443.6 966.433 1444.47 989.355 1443.81 1010.39 C 1443.51 1013.24 1440.99 1016.97 1439.36 1019.04 C 1435.95 1023.36 1427.23 1030.56 1421.36 1030.71 C 1414.2 1030.88 1401.68 1025.21 1398.94 1017.97 C 1390.57 1001.16 1397.78 946.131 1395 922.109 C 1395.14 907.069 1395.34 891.772 1395.42 876.755 C 1395.52 858.182 1396.53 850.504 1411.9 839.467 z" fill="rgb(50,14,137)" transform="translate(0,0)"></path>
<path d="M 978.516 1207.32 C 973.285 1203.11 965.713 1195.41 965.281 1188.82 C 961.92 1137.47 967.945 1084.8 962.485 1033.65 C 962.212 1031.09 961.38 1032.94 962.229 1029.34 L 964.761 1027.94 C 970.629 1028.07 973.987 1031.89 978.041 1035.73 C 983.302 1039.83 992.929 1046.63 999.026 1048.82 C 999.322 1049.08 999.618 1049.34 999.915 1049.6 C 1004.6 1052.89 1011.07 1054.03 1014.18 1059.62 C 1013.71 1073.53 1015.01 1086.48 1014.83 1100.08 C 1014.46 1127.14 1013.72 1154.31 1014.01 1181.39 C 1014.06 1186.66 1009.08 1197.2 1006.71 1201.99 L 1004.07 1203.63 C 994.402 1209.74 989.438 1208.81 978.516 1207.32 z" fill="rgb(156,114,254)" transform="translate(0,0)"></path>
<path d="M 1270.84 951.357 C 1272.15 935.681 1284.19 924.302 1300.24 926.366 C 1303.35 926.794 1306.45 927.292 1309.54 927.86 C 1317.78 935.108 1323.28 941.285 1323.52 953.121 C 1324.29 991.498 1321.12 1029.43 1325.62 1067.68 C 1316.69 1082.52 1318.88 1077.92 1306.93 1088.32 C 1292.48 1088.57 1276.24 1088.02 1271.07 1071.01 C 1270.21 1061.59 1271.3 1051.16 1271.38 1041.62 C 1271.57 1017.5 1271.43 993.388 1271.36 969.268 C 1271.35 963.376 1271.56 957.188 1270.84 951.357 z" fill="rgb(50,14,137)" transform="translate(0,0)"></path>
<path d="M 1133.74 1011.64 C 1135.8 1013.17 1135.65 1013.11 1137.43 1014.96 C 1137.57 1027.35 1137.12 1040.08 1137.01 1052.54 C 1136.62 1096.99 1138.02 1142.51 1136.04 1186.87 L 1124.92 1199.22 C 1119.9 1200.24 1116.43 1201.81 1111.69 1203.68 C 1106.49 1201.67 1102.8 1200.37 1097.88 1197.63 C 1094.54 1193.2 1089.89 1186.49 1089.56 1180.87 C 1087.22 1141.58 1090.45 1101.66 1089.26 1062.26 C 1088.84 1048.39 1101.8 1048.65 1110.44 1041.48 C 1120.77 1032.89 1126.4 1022.54 1133.74 1011.64 z" fill="rgb(156,114,254)" transform="translate(0,0)"></path>
<path d="M 906.483 1113.25 C 906.495 1107.07 905.404 1098.88 905.052 1092.26 C 903.364 1060.48 905.863 1028.71 905.077 996.834 C 904.757 983.854 903.481 955.747 905.56 943.94 C 908.823 945.923 913.954 955.254 916.71 959.337 L 917.754 960.944 C 925.682 973.255 936.318 995.466 947.221 1005.15 C 954.526 1020.47 953.968 1024.53 952.749 1041.58 C 950.883 1067.67 953.791 1094.46 951.432 1120.43 C 951.141 1123.57 941.574 1129.95 939.016 1131.78 C 926.795 1130.23 917.311 1127.81 909.16 1117.69 C 908.091 1116.37 907.283 1114.18 906.483 1113.25 z" fill="rgb(156,114,254)" transform="translate(0,0)"></path>
<path d="M 1013.36 1384.02 C 1016.85 1383.75 1018.04 1383.42 1020.09 1386.03 C 1020.84 1396.73 1020.43 1411.72 1020.43 1422.75 L 1020.3 1491.29 C 1020.28 1513.03 1020.04 1534.63 1021.8 1556.29 C 1021.97 1558.34 1019.91 1562.12 1018.92 1564.01 C 1016.94 1564.87 999.638 1565.12 995.75 1565.34 C 994.127 1565.37 992.611 1565.28 990.989 1565.22 C 989.4 1564.1 988.104 1563.51 988.098 1562.4 C 987.761 1505.11 986.896 1446.83 988.399 1389.53 C 988.525 1384.75 1008.02 1385.89 1013.36 1384.02 z" fill="rgb(50,14,137)" transform="translate(0,0)"></path>
<path d="M 940.022 1133.47 C 928.22 1133.94 917.472 1130.47 909.48 1121.17 C 905.623 1116.68 900.813 1107.84 900.215 1101.86 C 897.443 1074.17 899.621 1046.68 899.504 1018.96 C 899.69 990.58 896.212 954.548 897.763 927.035 L 899.166 926.019 C 905.864 927.531 911.191 938.674 911.534 944.748 C 908.282 941.75 908.484 940.747 907.199 936.359 C 906.579 934.304 905.974 932.246 905.383 930.183 C 895.74 950.664 903.03 1000.82 902.15 1025.5 C 901.441 1045.39 897.182 1097.61 906.483 1113.25 C 907.283 1114.18 908.091 1116.37 909.16 1117.69 C 917.311 1127.81 926.795 1130.23 939.016 1131.78 C 941.574 1129.95 951.141 1123.57 951.432 1120.43 C 953.791 1094.46 950.883 1067.67 952.749 1041.58 C 953.968 1024.53 954.526 1020.47 947.221 1005.15 C 957.797 1012.27 952.137 1025.07 963.896 1024.8 C 971.074 1024.63 976.304 1029.24 978.041 1035.73 C 973.987 1031.89 970.629 1028.07 964.761 1027.94 L 962.229 1029.34 C 961.38 1032.94 962.212 1031.09 962.485 1033.65 C 967.945 1084.8 961.92 1137.47 965.281 1188.82 C 965.713 1195.41 973.285 1203.11 978.516 1207.32 C 989.438 1208.81 994.402 1209.74 1004.07 1203.63 L 1006.71 1201.99 C 1009.08 1197.2 1014.06 1186.66 1014.01 1181.39 C 1013.72 1154.31 1014.46 1127.14 1014.83 1100.08 C 1015.01 1086.48 1013.71 1073.53 1014.18 1059.62 C 1011.07 1054.03 1004.6 1052.89 999.915 1049.6 C 1007.32 1049.71 1027.68 1050.46 1033.61 1053.52 L 1032.8 1054.44 C 1029.12 1054.39 1024.61 1053.59 1022.34 1055.46 L 1022.07 1056.55 C 1021.17 1060.05 1018.09 1066.27 1017.82 1068.51 L 1019.04 1069.81 C 1022.47 1064.02 1021.04 1059.49 1024.66 1055.91 C 1027.86 1055.21 1036.75 1055.3 1038.61 1057.21 C 1044.6 1063.33 1077.46 1052.01 1079.22 1059.6 C 1083.48 1077.89 1079.53 1096.9 1079.4 1115.41 C 1078.24 1156.55 1079.51 1197.64 1077.18 1238.62 C 1077.14 1239.3 1071.87 1245.85 1070.94 1246.38 C 1071.24 1241.92 1072.63 1241.11 1075.65 1237.73 L 1075.88 1126.68 C 1075.93 1116.58 1078.35 1067.52 1073.87 1061.83 C 1068.14 1059.5 1058.21 1061.36 1052.34 1063.13 C 1042.9 1065.99 1032.59 1057.78 1025.64 1065.36 C 1024.56 1071.68 1028.17 1086.17 1028.17 1094.27 C 1028.17 1140.27 1026.91 1186.64 1028.73 1232.57 C 1028.83 1235.08 1032.77 1241.97 1034.03 1244.73 C 1030.79 1243.53 1028.71 1239.96 1027.63 1236.7 C 1020.26 1214.5 1026.99 1089.72 1022.23 1084.32 C 1019.18 1088.47 1020.41 1170.68 1017.54 1184.8 C 1010.91 1217.39 964.698 1221.17 961.971 1182.83 C 958.805 1138.29 965.506 1080.32 958.235 1035.13 L 957.386 1035.25 C 957.306 1038.21 957.465 1038.42 956.712 1040.84 C 953.753 1050.37 954.02 1101.55 956.103 1108.12 L 957.934 1113.88 C 954.771 1124.82 949.175 1128.11 940.022 1133.47 z" fill="rgb(254,254,254)" fill-opacity="0.14902" transform="translate(0,0)"></path>
<path d="M 1028.76 720.555 C 1034.81 719.525 1047.73 715.385 1052.48 717.991 C 1058.57 721.328 1061.9 718.439 1066.64 723.807 C 1072.06 728.705 1074.77 733.218 1079.52 738.705 C 1080.72 748.333 1080.5 759.097 1079.32 768.712 C 1075.9 773.193 1071.76 781.22 1066.93 783.8 C 1064.34 785.179 1061.99 786.76 1059.11 787.418 C 1056.15 788.095 1056.46 790.781 1053.34 792.252 C 1049.82 792.488 1049.53 792.652 1046.41 793.257 C 1040.27 791.28 1048.82 788.495 1033.69 788.507 C 1023.56 783.299 1019.3 782.573 1013.94 769.989 C 1011.83 765.037 1010.59 759.354 1008.69 753.95 L 1010.35 747.508 C 1015.15 729.303 1017.71 734.032 1028.76 720.555 z" fill="rgb(254,254,254)" fill-opacity="0.00784314" transform="translate(0,0)"></path>
<path d="M 557.741 722.321 C 565.741 721.555 569.802 725.728 575.649 730.514 C 578.518 751.738 579.532 777.697 575.479 798.722 C 569.312 804.083 567.139 806.044 558.82 807.891 C 551.898 806.194 546.085 804.186 541.003 799.386 C 540.931 799.113 537.039 785.822 537.038 785.979 C 537.173 771.982 535.063 751.326 537.824 737.996 C 537.88 737.725 539.801 734.032 539.786 732.95 C 539.779 732.426 540.213 730.595 540.577 730.113 C 546.209 722.671 549.475 724.2 557.741 722.321 z" fill="rgb(156,114,254)" transform="translate(0,0)"></path>
<path d="M 1473.98 888.128 C 1486.31 888.06 1488.5 890.743 1495.94 899.851 C 1497.74 914.184 1499.77 930.048 1499.07 944.494 C 1498.38 958.844 1490.71 964.063 1480.74 971.668 C 1471.53 972.185 1471.5 970.56 1462.85 966.721 C 1460.62 963.703 1458.45 960.638 1456.35 957.531 C 1455.37 939.056 1455.33 920.544 1456.2 902.065 C 1458.72 898.823 1460.35 896.055 1462.6 892.676 C 1468.87 890.768 1468.38 891.367 1473.98 888.128 z" fill="rgb(156,114,254)" transform="translate(0,0)"></path>
<path d="M 1033.69 788.507 C 1048.82 788.495 1040.27 791.28 1046.41 793.257 C 1049.53 792.652 1049.82 792.488 1053.34 792.252 C 1052.15 794.017 1051.31 795.233 1051.31 797.471 C 1051.32 844.617 1052.36 891.837 1052.65 938.985 C 1052.76 956.128 1056.08 970.468 1053.94 987.951 C 1052.55 999.361 1048.29 1023.51 1059.93 1029.71 L 1059.27 1031.24 C 1052.29 1032.13 1045.41 1033.21 1038.62 1031.12 C 1036.29 1030.41 1032.44 1030.42 1030.01 1030.46 L 1032.82 1028 C 1036.8 1027.32 1038.61 1026.77 1041.49 1024.19 C 1042.82 1021.23 1040.65 982.542 1040.59 976.012 L 1040.45 802.642 C 1040.45 795.347 1041.14 795.765 1036.5 791.127 L 1033.69 788.507 z" fill="rgb(254,254,254)" fill-opacity="0.0156863" transform="translate(0,0)"></path>
<path d="M 1261.56 897.68 C 1263.84 900.017 1265.29 900.935 1265.54 904.51 C 1267.99 939.934 1265.58 975.931 1266.61 1011.48 C 1266.66 1013.36 1266.37 1018.21 1267.87 1018.71 C 1269.99 1010.66 1264.7 956.914 1270.84 951.357 C 1271.56 957.188 1271.35 963.376 1271.36 969.268 C 1271.43 993.388 1271.57 1017.5 1271.38 1041.62 C 1271.3 1051.16 1270.21 1061.59 1271.07 1071.01 L 1268.42 1069.7 C 1262.48 1074.15 1267.15 1186.6 1265.25 1202.42 C 1265.18 1203.07 1261.57 1205.91 1260.86 1206.37 C 1263.84 1192.56 1261.84 1168.92 1261.68 1154.37 L 1261.14 1054.97 C 1261.26 1024.8 1262.86 994.155 1262.1 963.995 C 1261.71 948.626 1266.53 911.231 1261.56 897.68 z" fill="rgb(254,254,254)" fill-opacity="0.027451" transform="translate(0,0)"></path>
<path d="M 1001.04 1312.21 C 1011.49 1311.03 1008.59 1312.36 1016.1 1315.11 C 1024.03 1318.02 1023.47 1320.45 1028.21 1326.71 C 1028.28 1331.86 1028.55 1337.87 1028.34 1342.94 C 1025.52 1347.35 1020.02 1357.48 1013.23 1356.22 C 1006.85 1356.49 998.6 1358.83 992.603 1354.72 C 981.369 1347.02 983.998 1336.2 983.456 1324.6 C 993.527 1311.84 989.495 1319.48 1001.04 1312.21 z" fill="rgb(50,14,137)" transform="translate(0,0)"></path>
<path d="M 1345.67 879.972 C 1350.23 877.846 1354.34 875.65 1359.39 875.697 C 1359.94 875.661 1360.48 875.624 1361.02 875.587 C 1366.08 875.131 1370.66 875.874 1374.66 879.537 C 1378.68 883.224 1383.31 889.416 1388.34 892.39 C 1388.34 892.391 1393.26 892.365 1393.26 892.365 C 1394.51 893.605 1394.35 898.964 1394.37 900.234 C 1394.5 906.658 1392.88 916.082 1395 922.109 C 1397.78 946.131 1390.57 1001.16 1398.94 1017.97 L 1397.22 1017.71 C 1395.13 1017.39 1393.95 1017.07 1391.89 1016.47 L 1390.68 1017.13 C 1388.35 1030.81 1390.04 1051.31 1389.53 1066.03 C 1388.94 1082.91 1388.78 1091.65 1373.17 1103.31 C 1368.72 1106.63 1360.33 1109.37 1355.41 1105.67 C 1368.67 1105.55 1373.7 1100.67 1382.19 1091.75 C 1383.85 1085.81 1385.95 1079.64 1386.27 1073.48 C 1387.91 1042.05 1387.24 1011 1387.12 979.621 C 1387.16 961.922 1387 944.222 1386.64 926.526 C 1386.5 917.904 1386.75 906.972 1385.51 898.691 L 1385.21 896.743 C 1384.24 889.996 1380.73 886.245 1375.2 882.461 C 1365.67 875.941 1355.64 878.874 1345.67 879.972 z" fill="rgb(254,254,254)" fill-opacity="0.0745098" transform="translate(0,0)"></path>
<path d="M 1036.5 791.127 C 1041.14 795.765 1040.45 795.347 1040.45 802.642 L 1040.59 976.012 C 1040.65 982.542 1042.82 1021.23 1041.49 1024.19 C 1038.61 1026.77 1036.8 1027.32 1032.82 1028 L 1033.32 1027.11 C 1035.57 1026.33 1034.83 1026.78 1036.67 1025.23 C 1037.39 1011.78 1035.96 997.978 1034.82 984.551 L 1034.71 985.156 C 1032.89 969.128 1033.68 937.519 1033.79 919.974 C 1033.95 892.303 1033.16 860.764 1034.67 833.506 L 1035.09 839.993 C 1035.93 823.188 1036.66 807.914 1036.5 791.127 z" fill="rgb(50,14,137)" fill-opacity="0.964706" transform="translate(0,0)"></path>
<path d="M 642.286 625.184 C 646.257 619.818 645.774 616.049 650.475 611.654 C 644.967 626.532 646.769 672.166 646.738 689.961 L 647.566 837.416 C 647.669 846.725 648.52 884.202 647.152 891.167 C 645.465 883.241 647.655 871.911 646.372 864.535 C 644.063 851.263 646.504 829.827 644.263 817.54 C 639.514 791.506 640.436 767.416 640.576 741.211 L 642.286 625.184 z" fill="rgb(254,254,254)" fill-opacity="0.0313725" transform="translate(0,0)"></path>
<path d="M 906.483 1113.25 C 897.182 1097.61 901.441 1045.39 902.15 1025.5 C 903.03 1000.82 895.74 950.664 905.383 930.183 C 905.974 932.246 906.579 934.304 907.199 936.359 C 908.484 940.747 908.282 941.75 911.534 944.748 C 913.62 951.409 916.233 953.151 916.71 959.337 C 913.954 955.254 908.823 945.923 905.56 943.94 C 903.481 955.747 904.757 983.854 905.077 996.834 C 905.863 1028.71 903.364 1060.48 905.052 1092.26 C 905.404 1098.88 906.495 1107.07 906.483 1113.25 z" fill="rgb(156,114,254)" fill-opacity="0.85098" transform="translate(0,0)"></path>
<path d="M 775.27 896.664 C 773.944 895.157 772.591 893.787 771.784 891.926 C 771.613 891.53 771.473 891.121 771.302 890.726 C 768.765 884.862 769.17 827.29 769.52 816.986 C 769.604 814.517 771.632 813.155 771.57 810.539 C 771.494 807.414 770.628 801.852 772.099 799.04 C 772.393 798.477 772.728 797.934 772.991 797.355 L 773.684 795.818 C 773.494 799.165 772.998 803.3 774.276 806.461 C 775.973 810.656 773.9 815.383 774.043 819.001 C 775.061 844.673 774.956 871.065 775.27 896.664 z" fill="rgb(254,254,254)" fill-opacity="0.0196078" transform="translate(0,0)"></path>
<path d="M 1131.12 489.977 C 1134.57 493.171 1136.59 496.745 1136.17 501.491 C 1135.22 511.919 1137.53 535.499 1135.94 544.2 C 1134.34 540.222 1134.87 531.649 1133.68 530.577 C 1131.18 528.325 1131.55 524.363 1131.43 524.206 C 1131.06 524.766 1130.91 525.08 1130.4 525.467 C 1129.37 523.944 1130.09 497.696 1130.62 493.856 L 1131.12 489.977 z" fill="rgb(50,14,137)" fill-opacity="0.980392" transform="translate(0,0)"></path>
<metadata><recraft-signature>{"signed_by": "recraft", "signature_b64": "YedzJUxNV7NQAV6FTNmLAnDHq2CW4psjcZ3UlIsN3SEgCxPdbzHU3qQW5lZZC5zxWKY0SrZkhgzMca+F8IsUAw==", "signing_algo": "Ed25519", "generation_timestamp": 1772542325, "identifier": "e933eb38-576e-448b-af68-4739f144f69f"}</recraft-signature></metadata></svg>