<svg width="2048" height="2048" viewBox="0 0 2048 2048" fill="none" xmlns="http://www.w3.org/2000/svg">
<path d="M1011.92 237.857C1011.95 217.393 1011.22 191.459 1012.07 170.945C1012.33 164.747 1033.04 166.452 1038.32 169.146C1040.93 172.513 1040.11 171.661 1040.57 176.655C1038.5 176.568 1036.38 176.913 1034.45 176.049C1033.73 176.202 1033.38 176.76 1032.61 176.761C1022.51 171.261 1022.48 182.673 1024.03 184.09C1034.59 193.729 1029.53 177.878 1034.97 188.443C1035.16 188.261 1035.13 187.795 1035.14 187.548C1037.58 193.991 1032.86 215.575 1037.28 223.509C1038.62 225.922 1035.82 234.913 1038.75 237.678C1051.86 250.855 1075.32 234.937 1075.67 252.134C1076.47 329.895 1076.43 407.662 1075.54 485.422C1075.34 526.446 1075.39 567.824 1075.89 608.873C1075.94 612.861 1073.01 626.901 1075.85 629.457C1080.32 633.488 1089.25 634.481 1094.32 630.586C1098.07 623.039 1092.99 309.514 1094.76 278.964C1095.12 272.788 1093.54 255.826 1094.46 248.598C1094.78 246.068 1097.41 243.739 1100.18 243.055C1106.81 241.417 1118.58 242.223 1125.37 243.646C1125.92 243.761 1127.48 244.795 1127.54 245.82C1129.18 274.713 1128.31 313.804 1128.32 342.293L1128.29 622.772L1128.56 734.059C1128.63 741.726 1126.04 752.247 1129.86 758.563C1132.98 760.321 1137.57 759.741 1140.92 758.761C1143.18 758.098 1145.4 756.738 1146.51 754.595C1148.95 749.838 1147.55 506.537 1147.58 474.322C1147.6 453.729 1145.62 422.946 1148.41 403.562C1156.84 403.725 1166.39 404.116 1174.72 403.317L1180.42 409.934C1179.46 435.706 1180.25 463.877 1180.21 489.965L1180.34 653.346C1180.18 699.304 1180.31 745.263 1180.71 791.219C1180.73 806.104 1180.69 820.386 1179.47 835.223C1178.86 842.654 1191.54 847.995 1198.47 842.219C1200.17 837.63 1199.23 808.312 1199.18 801.697C1198.47 702.869 1200.25 604.083 1199.52 505.255C1199.42 491.528 1206.12 495.642 1217.27 495.245C1220.89 495.116 1228.27 495.288 1231.6 496.187C1233.55 503.799 1232.48 560.124 1232.46 570.759L1232.4 791.263L1232.58 863.702C1232.64 876.306 1232.39 890.17 1233.37 902.716C1233.73 907.276 1234.65 907.702 1237.84 909.631C1242 909.008 1248.27 908.405 1251.01 905.214C1251.98 896.296 1251.6 883.119 1251.6 873.82L1251.57 819.958C1251.52 772.161 1252.49 721.121 1251.42 673.719C1259.51 666.566 1283.71 663.135 1283.92 676.396C1285.41 770.089 1282.9 864.15 1284.8 957.699C1284.84 959.803 1295.61 962.797 1297.92 963.019C1299.27 962.547 1302.72 961.099 1302.8 959.312C1305.69 888.583 1301.82 816.7 1304.41 745.839C1304.49 743.5 1330.42 738.882 1336.09 746.723C1337.44 756.039 1336.5 786.093 1336.57 797.235L1336.89 947.135C1337.03 962.373 1336.6 977.29 1336.34 992.47C1336.22 999.469 1341.93 1005.7 1349.02 1004.52C1360.74 1002.57 1355.62 973.629 1355.62 963.945C1355.85 932.317 1355.9 900.687 1355.77 869.058C1355.74 861.696 1354.12 832.984 1358.03 828.197C1364.94 827.472 1382.21 826.536 1388.06 829.138C1390.81 830.365 1389.64 852.846 1389.58 856.592L1388.52 906.137C1386.73 991.282 1389.88 1077.23 1388.97 1162.43C1388.83 1175.56 1390.72 1197.61 1389.21 1209.34C1384.09 1212.96 1364.66 1211.54 1357.56 1211.33C1356.42 1157.53 1358.4 1103.24 1357.42 1049.4C1357.29 1042.16 1346.16 1041.63 1341.34 1043.16C1339.78 1044.8 1337.14 1047.54 1337.05 1049.74C1336.47 1063.43 1336.97 1078.69 1336.95 1092.33L1336.54 1233.06C1336.49 1242.32 1338.01 1289.04 1334.97 1298.91C1334.31 1301.07 1315.03 1300.28 1309.37 1300.33L1303.52 1294.7C1304.55 1249.81 1303.74 1201.94 1303.69 1156.9L1303.66 1105.2C1303.68 1097.97 1305.82 1084.68 1301.77 1079.17C1298.47 1077.03 1297.78 1077.08 1293.84 1077.57C1280.64 1079.21 1284.19 1097.52 1284.11 1108.29C1283.99 1125.93 1283.97 1143.56 1284.05 1161.19L1284.15 1324.61C1284.1 1339.52 1284.36 1354.4 1284.28 1369.3C1284.27 1370.85 1280.68 1373.58 1279.14 1373.8C1269.31 1375.22 1259.45 1376.77 1251.45 1370.5C1252.51 1321.84 1251.53 1270.86 1251.37 1222.05L1251.18 1166.12C1251.15 1158.18 1256.34 1116.87 1234.79 1135.49C1234.12 1136.07 1232.81 1138.6 1233.14 1139.55C1232.78 1214.97 1233.77 1291.17 1233.15 1366.5L1232.46 1474.71C1232.39 1495.4 1231.53 1517.59 1234.13 1538.03C1234.34 1539.68 1234.3 1538.59 1234.06 1540.96C1232.61 1542.58 1231.7 1543.9 1230.61 1545.78C1224.31 1549.72 1218.94 1546.91 1209.79 1547.89L1201 1542.59C1202.95 1533.42 1200.88 1196.83 1200.85 1196.7C1200.43 1195.15 1199.02 1194.81 1197.73 1194.01C1192.87 1192.8 1186.17 1191.57 1181.24 1194.15C1178.48 1195.6 1178.36 1200.06 1178.37 1203.11C1178.4 1240.45 1179.35 1277.95 1179.44 1315.29L1178.04 1540.32C1177.77 1564.38 1179.57 1589.09 1178.41 1613.3C1178.09 1619.84 1180.64 1631.81 1176.84 1636.67C1170.01 1639.17 1157.39 1639.35 1150.41 1637.41C1147.57 1632.87 1148.78 1611 1148.77 1604.36L1148.69 1542.73C1148.6 1470.48 1148.77 1398.2 1148.53 1325.95C1148.51 1319.11 1149.54 1309.37 1141.32 1307.98C1134.8 1306.87 1131.89 1309 1126.83 1312.31L1126.39 1646.61L1125.96 1751.87C1125.97 1767.44 1125.99 1783.15 1126.44 1798.74C1126.51 1801.28 1125.57 1802.71 1124.11 1804.61C1120.79 1806.46 1101.89 1806.41 1098.08 1805.3C1094.63 1797.07 1097.67 1610.61 1096.68 1584.6C1096.32 1575.19 1097.03 1551.6 1096.42 1540.62C1096.31 1538.52 1094.52 1536.01 1092.65 1535.56C1086.64 1534.11 1083.14 1533.27 1077.73 1535.85C1072.66 1541.21 1074.17 1561.26 1074.1 1569.6L1074 1637.26C1073.96 1684.66 1072.77 1732.22 1073.09 1779.64C1073.13 1785.08 1075.2 1799.57 1072.72 1803.23C1062.63 1808.96 1039.45 1799.02 1038.55 1808.56C1036.99 1825.07 1037.91 1844.61 1037.81 1861.42C1037.78 1866.7 1038.5 1873.75 1037.44 1878.45C1031.91 1880.54 1021.15 1880.03 1015.04 1879.83C1008.48 1875.55 1012.56 1871.01 1012.07 1865.27C1010.54 1847.43 1012.61 1829.66 1012.3 1812.03C1011.99 1794.09 979.812 1814.25 976.638 1801.85C975.857 1786.84 976.625 1770.06 976.717 1754.93L976.532 1609.43C976.509 1588.43 976.817 1567.43 976.665 1546.45C976.582 1534.93 962.024 1531.07 955.603 1537.76C954.556 1540.22 954.225 1541.86 954.258 1544.6C955.23 1626.83 952.541 1709.11 954.302 1791.34C954.515 1801.32 955.894 1808.84 942.406 1805.58C928.147 1802.73 921.978 1813.8 922.635 1790.42C922.661 1770.37 922.664 1747.95 922.577 1726.8L921.846 1552.99C921.929 1475.71 922.151 1398.48 921.687 1321.22C921.589 1304.96 899.481 1308.23 899.282 1317.41C898.882 1335.9 899.455 1355.52 899.129 1374.17C896.429 1403.2 903.314 1626.59 897.757 1636.02C891.496 1639.36 875.703 1638.73 868.722 1637.82C867.337 1614.7 868.487 1579.59 868.519 1555.46L868.721 1397.3C869.731 1380.67 869.439 1349.45 868.887 1332.57C869.733 1287.42 869.156 1240.34 869.155 1195.04C863.146 1195.01 856.704 1193.73 851.275 1195.68C849.029 1198.29 849.795 1197.75 849.853 1202.32C849.436 1223.26 847.899 1382.15 850.429 1388.23C851.811 1386.36 852.436 1376.47 853.023 1372.99C848.993 1427.84 848.868 1486.46 850.366 1541.5C850.548 1548.2 838.724 1550.9 833.799 1550.39C823.878 1549.35 823.552 1551.96 816.6 1544.55C818.26 1510.99 817.081 1470.65 817.086 1436.59C817.165 1413.29 816.894 1389.99 816.275 1366.7C815.929 1347.56 816.78 1306.23 807.009 1290.93C804.013 1289.43 805.67 1289.75 801.755 1290.85C801.546 1288.16 802.549 1287.05 803.934 1284.87L805.496 1284.58C815.8 1293.02 814.543 1312.68 817.079 1324.78L817.498 1326.72C817.848 1292.65 817.932 1258.58 817.752 1224.51C818.759 1194.86 817.321 1163.7 817.486 1134.03C817.492 1132.94 813.128 1133.39 812.972 1133.4C804.502 1132.21 793.091 1132.46 796.53 1144.14C797.424 1158.08 796.018 1174.41 797.026 1187.62C796.668 1234.83 796.13 1288.03 797.594 1335.01C796.777 1346.94 797.583 1358.51 797.682 1369.88C797.73 1375.38 770.708 1379.61 764.322 1372.63C762.836 1366.02 764.181 1356.79 764.142 1349.53L763.747 1287.16L763.883 1130.13C763.959 1116.86 761.992 1097.34 765.368 1085.15C763.013 1074.55 744.938 1075.82 744.955 1083.3C744.983 1095.58 745.189 1108.58 745.247 1120.92C745.709 1164.43 745.662 1207.95 745.107 1251.47C745.006 1258.93 746.317 1295.07 743.623 1298.34C736.518 1301.45 724.378 1301.18 716.586 1299.32C713.682 1298.63 712.961 1294.36 712.787 1291.45C711.398 1268.23 712.158 1243.37 712.304 1220.16L712.409 1095.67C712.431 1088.25 712.425 1080.61 712.467 1073.19C712.54 1060.2 716.917 1031.78 694.024 1046.69C692.577 1048.2 692.092 1048.84 691.793 1050.99C690.534 1060.07 691.602 1070.71 691.608 1079.97C691.617 1092.93 693.145 1206.62 691.001 1210.21C690.275 1211.42 687.854 1211.81 686.521 1211.94C679.78 1212.59 664.866 1213.97 659.594 1209.98C657.792 1200.46 660.022 1171.87 660.088 1160.76L660.532 1040.59L659.551 902.788C659.472 890.885 656.673 836.428 662.573 829.735C670.002 826.809 681.249 826.243 689.175 826.815C693.059 827.096 692.004 844.977 691.985 847.849C691.649 897.746 691.698 947.662 691.781 997.557C692.211 998.162 692.641 998.766 693.072 999.371C700.105 1003.21 714.391 1008.31 714.74 994.943C713.956 993.36 712.121 989.783 712.116 988.134C711.937 919.371 711.75 850.585 712.583 781.823C712.717 770.83 712.908 758.191 711.475 747.451L718.396 742.431C725.811 743.63 739.362 742.726 743.589 745.404C744.919 751.999 744.708 765.554 744.838 772.851C745.206 792.417 745.357 811.986 745.289 831.555C745.397 869.064 748.165 919.771 744.275 955.738C744.483 955.951 744.691 956.165 744.899 956.378L745.962 957.424C750.067 961.501 751.775 963.661 757.837 963.25C760.469 962.073 763.645 959.469 763.815 956.502C764.469 945.093 763.388 916.753 763.726 906.927C764.563 882.606 762.204 680.414 765.099 674.059C771.301 669.117 788.683 668.745 795.27 673.709C796.279 674.469 796.46 678.743 796.464 680.209C796.656 742.924 796.761 805.638 798.061 868.343C797.939 874.019 797.575 881.593 798.841 887.01C800.329 893.375 797.273 900.028 795.999 906.947C819.683 911.896 815.089 908.902 815.144 889.001C815.195 870.064 817.165 848.488 815.142 829.596C815.978 823.174 815.607 801.168 815.636 793.847L816.058 719.248C816.799 659.018 820.534 599.239 818.739 538.87C818.309 524.412 819.178 516.217 816.283 501.397C818.726 498.672 820.527 496.211 824.314 495.928C829.283 495.361 843.514 493.446 847.006 497.495C850.023 500.993 848.757 520.9 848.739 525.835C848.668 541.396 848.69 556.957 848.804 572.518C849.067 620.76 849.952 670.035 849.67 718.198C849.386 743.117 849.3 768.038 849.414 792.958C849.367 806.323 848.946 820.377 849.617 833.674C849.889 839.076 850.046 840.716 853.707 843.796C858.24 845.266 862.406 843.917 867.263 843.049C868.304 833.541 867.785 814.13 867.771 803.806L867.658 732.808L868.04 490.617C868.145 472.532 868.08 454.447 867.846 436.364C867.784 428.205 867.573 418.989 868.047 410.834C868.193 408.331 871.287 405.58 873.187 403.344C881.922 404.028 885.788 404.158 894.474 403.544C896.029 405.012 899.576 408.253 899.65 410.052C900.409 428.47 900.045 453.441 900.028 471.387L900.162 658.162C900.232 687.808 900.069 717.458 900.4 747.101C900.558 761.323 920.213 756.279 920.309 753.253C920.804 737.644 920.246 720.946 920.18 705.209L920.137 381.922L920.358 291.417C920.36 284.653 919.107 248.159 921.464 245.188C927.624 241.548 940.977 243.416 948.475 243.455C953.727 243.483 955.664 248.366 955.706 253.331L956.019 516.034L956.199 597.922C956.21 607.16 956.013 616.22 955.681 625.45C955.556 628.912 956.346 629.596 958.173 631.78C961.576 633.134 965.076 633.788 968.745 633.121C976.986 631.622 975.654 624.045 975.542 617.792C974.916 583.072 974.871 247.183 976.276 245.53C981.295 239.628 998.452 243.767 1005.91 243.642C1007.66 242.167 1010.2 239.536 1011.92 237.857ZM1038.03 1741.21C1039.99 1732.7 1039.29 1696.85 1039.99 1685.15C1041.25 1664.39 1049.39 1640.46 1047.81 1622.34C1051.49 1579.83 1059.27 1537.82 1066.01 1495.75C1084.63 1379.47 1123.57 1145.63 1215.99 1067.94C1233.25 1053.43 1251.89 1043.05 1272.47 1034.08C1282.94 1029.51 1298.51 1027.91 1306.91 1020.26C1301.18 1015.25 1285.02 1013.62 1277.84 1009.32C1260.91 999.175 1238.29 987.355 1223.5 974.334C1113.04 876.98 1060.93 723.455 1043.99 581.016C1043.23 574.632 1044.03 566.799 1042.93 560.551C1038.46 535.226 1039.84 510.588 1039.5 484.936L1038.22 339.768C1038 314.106 1039.46 288.059 1038.38 262.46C1038.18 257.834 1037.88 250.555 1034.08 247.387C1030.77 244.623 1022.76 243.401 1018.68 244.455C1016.12 245.117 1014.47 246.907 1013.28 249.198C1009.89 255.711 1012.79 486.815 1011.93 513.347C1011.6 523.515 1009.6 533.426 1008.78 543.528C1007.18 563.35 1005.85 583.282 1003.23 603.013C1001.78 613.987 999.214 624.887 997.313 635.797C996.012 643.271 995.337 650.83 993.739 658.256C965.929 787.519 889.853 952.885 764.021 1011.56C755.561 1015.5 746.397 1014.35 740.573 1022.78C740.717 1026.5 740.051 1024.95 742.604 1027.62C746.94 1029.28 750.214 1029.34 754.795 1029.09C775.353 1027.98 823.045 1058.14 837.791 1071.51C929.135 1154.34 967.21 1398.43 986.118 1520.9C987.555 1530.2 990.392 1539.28 991.691 1548.59C995.779 1577.88 997.961 1607.6 1001.32 1636.96C1003.55 1656.48 1007.44 1675.81 1008.34 1695.47C1008.76 1704.47 1008.63 1713.49 1009.14 1722.49C1009.91 1735.86 1011.55 1749.16 1011.84 1762.56C1012.05 1772.4 1010.06 1783.38 1011.58 1793.01C1012.12 1796.45 1013.2 1799.66 1016.01 1801.91C1019.39 1804.62 1026.91 1804.45 1030.99 1803.59C1032.66 1803.24 1034.54 1802.38 1035.61 1801.02C1041.68 1793.29 1037.75 1768.35 1037.59 1758.91C1037.49 1753.03 1038.27 1747.04 1038.03 1741.21Z" fill="#6E4ACC"/>
<path d="M1055.85 1081.17C1050.18 1099.63 1050.71 1118.04 1047.21 1136.38C1042.67 1160.14 1043.71 1181.59 1041.96 1204.99C1037.64 1262.44 1033.96 1319.82 1031.22 1377.39C1029.45 1414.39 1032.84 1450.97 1025.22 1487.67C1024.07 1493.2 1023.99 1505.95 1023.46 1512.24C1022.45 1510.86 1022.28 1508.99 1022.46 1507.25C1024.85 1483.85 1019.62 1455.82 1018.6 1431.88L1010.11 1251.87C1006.97 1188.12 1006.17 1118.73 987.17 1057.35C980.116 1034.56 968.87 1011.4 953.546 992.985C949.567 988.204 940.369 984.695 938.284 979.093C937.697 977.515 938.329 976.824 939.262 975.493C942.94 970.249 949.38 965.096 953.926 960.442C966.629 947.513 979.072 934.331 991.248 920.905C1017.71 892.071 1010.12 898.122 1010.45 858.336C1010.79 817.409 1010.39 776.277 1012.49 735.365C1012.92 726.91 1009.04 692.6 1011.23 688.753C1013.67 687.601 1032.54 688.796 1037.51 688.764C1040.32 692.876 1038.89 705.35 1038.83 711.111L1038.82 755.119C1038.62 801.411 1039.58 850.234 1040.15 896.667C1040.18 899.689 1051.95 912.535 1054.71 915.599C1058.79 918.572 1108.26 973.967 1110.99 978.29C1108.55 983.076 1097.34 992.368 1093.04 997.707C1076.74 1017.93 1064.08 1046.49 1058.92 1071.95C1057.85 1077.24 1058.48 1076.21 1055.85 1081.17ZM1045.22 1021.83C1047.42 1016.3 1048.82 1006.4 1045.89 1000.97C1041.65 997.344 1040.22 994.676 1035.7 991.485C1024.11 983.298 1021.82 988.065 1011.52 992.377C1006.75 994.373 1009.33 997.255 1003.37 1001.2C999.968 1009.1 1000.91 1013.23 1004.28 1021.74C1004.88 1026.46 1007.6 1031.63 1012.98 1031.97C1015.18 1032.1 1016.84 1034.77 1018.61 1035.67C1033.2 1040.25 1039.33 1033.04 1045.22 1021.83Z" fill="#6E4ACC"/>
<path d="M586.614 637.45C591.589 637.545 595.965 639.963 596.072 645.451C596.358 660.216 596.191 675.004 596.19 689.777L596.204 782.707L587.718 793.63C588.396 820.827 587.188 849.705 587 877L587.16 988.555C587.524 1047.98 587.509 1107.41 587.113 1166.84C587.128 1195.04 588.178 1222.89 587.475 1251.11C590.66 1255.29 592.042 1257.74 594.613 1262.25C593.803 1286.64 595.025 1314.73 594.87 1339.47C594.787 1352.77 593.947 1392.44 596.018 1403.22C585.144 1414.84 586.014 1407.11 572.019 1408.94C568.402 1408.06 563.673 1407.05 563.881 1402.16C564.231 1393.96 564.521 1385.96 564.44 1377.75L564.035 1303.76C564.001 1292.39 564.093 1280.91 564.025 1269.53C563.968 1260.02 558.22 1264.04 552.643 1258.66C550.153 1250.72 551.692 1148.03 551.704 1133.06L551.88 791.07C557.971 783.983 564.669 785.46 564.649 775.926C564.58 742.072 564.793 708.198 564.643 674.34C564.597 663.903 564.867 653.537 563.853 643.135C573.662 635.203 575.266 639.768 586.614 637.45Z" fill="#6E4ACC"/>
<path d="M1459.05 639.056C1467.87 639.786 1476.93 637.215 1482.8 641.857C1485.27 647.224 1483.56 762.284 1483.84 776.734C1483.94 782.299 1490.55 781.007 1494.14 784.493C1495.26 785.587 1496.36 787.283 1496.34 788.864C1496.2 798.266 1496.02 808.09 1496.04 817.438C1496.02 841.158 1496.16 864.877 1496.45 888.594L1496.89 1117.96C1496.57 1161.82 1494.68 1210.26 1496.37 1253.78C1492.21 1256.04 1484.9 1259.12 1484.37 1264.31C1483.42 1273.52 1484.06 1283.17 1484.05 1292.48L1483.95 1367.9C1483.98 1376.26 1484.8 1400.47 1483.45 1407.2C1479.95 1408.44 1477.08 1409.02 1473.36 1409.01C1468.47 1409 1460.82 1409.89 1456.93 1406.61C1454.21 1404.33 1455.55 1326.88 1455.5 1315.54C1455.43 1297.81 1454.47 1279.65 1455.86 1261.99C1456.34 1255.99 1460.04 1251.04 1460.11 1245.15C1460.79 1184.96 1459.38 1124.58 1459.19 1064.36C1458.94 984.229 1459.2 904.092 1459.99 823.96C1460.01 815.121 1460.17 804.405 1459.75 795.711C1458.92 789.489 1455.66 782.769 1455.58 776.518C1455.04 732.665 1455.94 688.783 1455.16 644.938C1455.12 642.492 1457.45 640.584 1459.05 639.056Z" fill="#6E4ACC"/>
<path d="M612.218 834.899C617.033 835.431 636.462 835.665 638.444 836.312C643.552 841.714 641.126 868.833 640.9 877.691C640.466 895.441 640.209 913.195 640.129 930.95C639.526 999.816 639.409 1068.68 639.778 1137.55C639.826 1150.83 640.115 1164.1 640.645 1177.36C640.919 1184.47 643.061 1202.51 638.772 1207.56C630.825 1207.9 614.071 1210.05 608.498 1204.47C607.003 1198.84 607.894 1142.9 607.906 1134.22L607.59 971.553L607.071 873.48C607.102 863.066 606.661 851.445 607.345 841.038C607.574 837.568 609.816 836.519 612.218 834.899Z" fill="#6E4ACC"/>
<path d="M445.394 784.05C455.294 785.127 462.854 784.833 470.879 785.804C474.352 795.406 471.864 845.139 472.636 858.598C478.696 964.266 478.536 1069.97 472.418 1175.57C470.888 1201.98 474.723 1231.08 472.144 1257.67C472.013 1259.02 468.678 1262.34 467.71 1263.34C466.07 1263.33 466.443 1263.48 465.077 1263.01C455.988 1259.91 454.537 1264.85 444.86 1259.91C441.001 1255.77 442.317 1228.52 442.185 1221.46C441.303 1190.69 441.135 1159.91 441.681 1129.14C441.785 1124.66 441.894 1119.96 442.278 1115.5C444.24 1092.72 443.322 1070.06 443.222 1047.2L443.523 984.608C443.481 963.058 440.981 939.928 441.367 918.361C441.946 885.98 441.601 853.701 442.842 821.367C443.195 812.161 441.368 801.08 440.953 791.759C440.88 790.126 444.259 785.648 445.394 784.05Z" fill="#6E4ACC"/>
<path d="M1579.06 784.035C1585.48 783.009 1598.93 783.019 1605.18 785.348C1607.8 788.21 1606.08 801.086 1606.05 805.878C1605.99 821.191 1606.28 836.438 1606.56 851.742C1607.4 923.794 1607.51 995.854 1606.9 1067.91C1606.79 1082.57 1605.32 1097.95 1605.39 1112.25L1606.87 1221.31C1606.92 1231.35 1607.11 1241.41 1607.87 1251.47C1608.1 1254.5 1605.86 1255.88 1603.63 1258.23C1602.62 1259.7 1602.8 1259.25 1601.01 1260.23C1593.58 1260.06 1583.75 1261.58 1578 1258.15C1574.45 1253.92 1575.71 1223.31 1575.7 1216.05L1575.42 1133.82C1575.25 1116.61 1573.29 1098.93 1573.43 1082C1573.88 1028.79 1570.44 975.003 1575.06 922.02C1575.84 913.027 1575.53 902.715 1575.62 893.627C1575.82 871.816 1575.91 850.004 1575.88 828.193C1575.87 817.614 1573.91 791.914 1579.06 784.035Z" fill="#6E4ACC"/>
<path d="M1407.82 1206.81C1407.2 1187.36 1408.34 1159.25 1408.39 1139.03L1408.49 979.552L1408.22 884.948C1408.19 874.56 1407.55 846.505 1408.85 837.633C1412.82 835.364 1431.6 835.632 1437.15 835.764L1438.34 837.309C1438.85 844.63 1438.67 851.743 1438.77 859.052C1439.8 934.352 1439.56 1009.74 1439.57 1085.04L1439.56 1161.85C1439.56 1172.11 1440.13 1195.93 1438.4 1205.06C1433.51 1207.95 1414.45 1206.89 1407.82 1206.81Z" fill="#6E4ACC"/>
<path d="M504.967 883.336C516.973 884.746 523.37 881.392 531.056 888.484C533.395 894.069 531.176 1101.28 531.273 1126.5C531.309 1135.83 531.966 1145.02 532.333 1154.32C524.211 1157.18 510.134 1160.55 502.095 1155.7C498.03 1153.25 499.229 1137.03 499.104 1131.88C498.733 1118.31 498.463 1104.74 498.292 1091.16L497.518 948.439C497.486 932.243 499.656 904.238 496.232 890.202C499.917 887.995 501.721 886.206 504.967 883.336Z" fill="#6E4ACC"/>
<path d="M1522.3 883.386C1527.4 883.346 1543.74 883.303 1547.76 884.763C1547.55 889.414 1547.35 890.727 1546.74 895.07C1545.18 906.187 1545.6 919.398 1545.6 930.764L1545.67 989.364L1546 1072.79C1545.9 1095.54 1545.19 1120.01 1546.01 1142.5C1547.83 1144.35 1547.96 1144.38 1550.04 1145.95C1551.12 1149.45 1550.52 1151.63 1551.19 1155.28C1546.61 1157.06 1519.17 1159.64 1518.71 1152.17C1517.69 1135.68 1518.04 1118.46 1518.07 1101.9L1518.37 981.782L1518.33 915.955C1518.32 903.409 1515.62 894.088 1522.3 883.386Z" fill="#6E4ACC"/>
<path d="M1630.01 932.347C1635.11 932.591 1638.31 933.221 1643.63 932.768C1653.35 931.938 1654.29 933.72 1659.54 940.416C1658.16 947.761 1658.36 953.844 1658.38 961.281C1658.45 1002.09 1659.32 1042.92 1657.96 1083.71C1657.7 1091.67 1659.18 1099.55 1658.17 1107.28C1658.17 1107.28 1655.35 1111.12 1655.08 1111.48C1650.83 1113.74 1633.19 1112.74 1628.32 1109.98C1623.3 1107.14 1626.44 1094.78 1626.3 1089.03C1625.43 1052.04 1625.33 1015.04 1625.33 978.038C1625.34 964.369 1626.12 952.191 1623.21 938.705C1625.78 936.582 1627.64 934.704 1630.01 932.347Z" fill="#6E4ACC"/>
<path d="M424.157 1103.71C426.248 1116.42 394.641 1115.43 389.673 1106.05C391.621 1090.19 391.081 1074.62 391.166 1058.56L391.237 977.356C391.303 968.637 390.89 945.486 393.198 938.307C394.589 936.938 395.928 935.231 398.158 935.237C403.453 935.251 418.476 934.613 422.463 937.063C424.683 940.417 424.027 939.158 424.276 943.594C420.603 944.422 419.851 943.919 417.643 946.157C417.887 961.584 416.591 1092.43 419.175 1095.41C421.532 1098.12 423.367 1100.1 424.157 1103.71Z" fill="#6E4ACC"/>
<path d="M345.133 965.875C352.647 965.834 364.73 965.444 370.051 970.713C372.121 979.043 370.146 1034.96 370.609 1047.66C370.677 1051.82 370.347 1056.67 370.787 1060.75C371.89 1070.97 376.308 1073.12 367.486 1080.45C358.294 1079.97 351.394 1080.01 342.165 1080.28C341.084 1078.85 338.884 1076.05 338.828 1074.2C337.817 1040.29 337.243 1006.2 338.656 972.306C338.765 969.691 343.129 967.192 345.133 965.875Z" fill="#6E4ACC"/>
<path d="M1679.01 968.564C1680.25 967.964 1681.76 965.619 1683.29 965.308C1691.3 963.674 1703.08 964.56 1710.26 968.458C1709.68 970.762 1709.77 970.632 1709.92 973.062C1709.99 974.122 1709.64 974.913 1708.9 975.694C1708.37 976.263 1707.7 976.277 1706.97 976.276C1706.66 976.275 1706.37 976.324 1706.14 976.551C1704.66 977.976 1705.59 984.533 1705.74 986.492C1706.56 997.321 1703.12 1061.9 1707.49 1065.54C1708.87 1066.69 1710.33 1067.01 1712.03 1067.46C1712.27 1071.42 1712.89 1073.83 1710.94 1077.21C1704.75 1082.91 1685.6 1081.43 1678.77 1077.94C1678.23 1074.14 1679.14 1060.11 1679.12 1054.75L1679.05 994.281C1679.02 987.793 1678.05 973.677 1679.01 968.564Z" fill="#6E4ACC"/>
<path d="M283.89 996.603C286.924 994.95 287.816 991.193 292.462 991.149C305.66 991.025 307.695 989.843 319.752 994.369C317.894 1011.03 316.517 1028.92 319.144 1045.49C320.8 1055.94 298.041 1052.16 290.63 1053.16L290.183 1052.92C282.626 1048.91 281.763 1050.88 282.844 1040.5C284.325 1026.3 283.822 1011.03 283.89 996.603Z" fill="#6E4ACC"/>
<path d="M1755.5 990.431C1762.96 990.717 1765.92 992.211 1765.25 999.995C1764.79 1005.22 1764.01 1032.57 1764.59 1035C1769.65 1056.15 1759.82 1052.37 1742.75 1052.87C1738.87 1053.07 1731 1053 1731.21 1047.07C1731.97 1030.29 1731.75 1013.72 1731.18 996.953C1730.88 988.397 1749.68 991.283 1755.5 990.431Z" fill="#6E4ACC" fill-opacity="0.988235"/>
<path d="M1547.76 884.763C1554.25 891.781 1552.04 902.395 1552.08 912.08L1552.25 975.495V1096.99C1552.24 1105.22 1553.07 1150.23 1551.19 1155.28C1550.52 1151.63 1551.12 1149.45 1550.04 1145.95C1547.96 1144.38 1547.83 1144.35 1546.01 1142.5C1545.19 1120.01 1545.9 1095.54 1546 1072.79L1545.67 989.364L1545.6 930.764C1545.6 919.398 1545.18 906.187 1546.74 895.07C1547.35 890.727 1547.55 889.414 1547.76 884.763Z" fill="#6E4ACC" fill-opacity="0.980392"/>
<path d="M234.257 1000.15C239.393 999.643 267.476 997.661 264.038 1005.01C259.493 1014.72 268.01 1041.2 262.508 1046.33L261.371 1047.41C253.044 1048.5 242.726 1047.96 234.449 1047.97C230.387 1045.49 227.512 1043.71 229.157 1039.02C231.706 1031.76 230.087 1017.99 229.395 1010.99C228.732 1004.28 230.065 1004.58 234.257 1000.15Z" fill="#6E4ACC" fill-opacity="0.988235"/>
<path d="M1792.82 999.321C1797.03 998.906 1803.04 1000.02 1806 999.376C1811.23 998.243 1819.4 1000.07 1818 1007.44C1815.75 1019.24 1818.01 1030.7 1819.55 1042.73C1815.73 1046.39 1815.3 1048.41 1810.25 1048.16C1801.71 1047.52 1792.86 1048.99 1784.97 1046.21C1782.12 1045 1781.21 1042.13 1783.15 1039.59C1788.21 1033 1786.22 1020.59 1785.15 1013C1784.62 1009.23 1782.32 1006.43 1784.64 1002.71C1786.12 1000.35 1790.06 1000.22 1792.82 999.321ZM1804.41 1016.64C1806.51 1016.03 1807.77 1013.9 1807.3 1011.77C1806.83 1009.64 1804.78 1008.23 1802.62 1008.56C1801.1 1008.8 1799.82 1009.86 1799.33 1011.33C1798.83 1012.79 1799.19 1014.41 1800.26 1015.53C1801.33 1016.65 1802.93 1017.08 1804.41 1016.64Z" fill="#6E4ACC" fill-opacity="0.988235"/>
<path d="M1802.62 1008.56C1804.78 1008.23 1806.83 1009.64 1807.3 1011.77C1807.77 1013.9 1806.51 1016.03 1804.41 1016.64C1802.93 1017.08 1801.33 1016.65 1800.26 1015.53C1799.19 1014.41 1798.83 1012.79 1799.33 1011.33C1799.82 1009.86 1801.1 1008.8 1802.62 1008.56Z" fill="#6E4ACC" fill-opacity="0.933333"/>
<path d="M424.157 1103.71C423.367 1100.1 421.532 1098.12 419.175 1095.41C416.591 1092.43 417.887 961.584 417.643 946.157C419.851 943.919 420.603 944.422 424.276 943.594L424.1 1056.72C424.092 1071.31 424.682 1089.57 424.157 1103.71Z" fill="#6E4ACC" fill-opacity="0.980392"/>
<path d="M1710.26 968.458C1713.63 970.782 1712.86 999.44 1712.69 1005L1711.87 1043.5C1711.45 1058.11 1709.91 1052.66 1712.03 1067.46C1710.33 1067.01 1708.87 1066.69 1707.49 1065.54C1703.12 1061.9 1706.56 997.321 1705.74 986.492C1705.59 984.533 1704.66 977.976 1706.14 976.551C1706.37 976.324 1706.66 976.275 1706.97 976.276C1707.7 976.277 1708.37 976.263 1708.9 975.694C1709.64 974.913 1709.99 974.122 1709.92 973.062C1709.77 970.632 1709.68 970.762 1710.26 968.458Z" fill="#6E4ACC" fill-opacity="0.968627"/>
<path d="M1038.75 237.678C1035.82 234.913 1038.62 225.922 1037.28 223.509C1032.86 215.575 1037.58 193.991 1035.14 187.548C1035.13 187.795 1035.16 188.261 1034.97 188.443C1029.53 177.878 1034.59 193.729 1024.03 184.09C1022.48 182.673 1022.51 171.261 1032.61 176.761C1033.38 176.76 1033.73 176.202 1034.45 176.049C1036.38 176.913 1038.5 176.568 1040.57 176.655C1038.55 188.369 1042.17 229.664 1038.75 237.678ZM1030.3 183.933C1031.31 183.445 1031.98 182.44 1032.04 181.313C1032.09 180.187 1031.53 179.121 1030.56 178.536C1029.6 177.951 1028.39 177.942 1027.42 178.512C1026 179.345 1025.48 181.149 1026.26 182.604C1027.03 184.058 1028.81 184.644 1030.3 183.933Z" fill="#6E4ACC" fill-opacity="0.976471"/>
<path d="M1027.42 178.512C1028.39 177.942 1029.6 177.951 1030.56 178.536C1031.53 179.121 1032.09 180.187 1032.04 181.313C1031.98 182.44 1031.31 183.445 1030.3 183.933C1028.81 184.644 1027.03 184.058 1026.26 182.604C1025.48 181.149 1026 179.345 1027.42 178.512Z" fill="#6E4ACC" fill-opacity="0.933333"/>
<path d="M283 1049L261.5 1047.5L263 1046L263.5 1044.5L264 1043L264.5 1039L264 1030L263 1021L262.5 1014.5L263 1009.5L263.5 1006L264.5 1004L284 996.5V1023L283 1038L282.5 1043V1045.5V1047.5L283 1049Z" fill="white"/>
<path d="M339 972L319.5 994.5L318.5 1006.5L317.5 1024L318 1036L319 1047L339 1075L338 1040V1018V994.5L338.5 975L339 972Z" fill="white"/>
<path d="M393.5 938.5L370 971L371 984.219V1000L370.5 1036V1056.5L371 1063L372.5 1069L373 1072L372.5 1074.5L371 1077L367.5 1080.5L390 1106L391 1085L391.5 971V954L392.5 942L393.5 938.5Z" fill="white"/>
<path d="M422 937L441 791.5L442 806L443 818L442.5 829.5L442 881.5L441 924.5L442 937V950L443.5 975.5V1022.5V1100.5L442 1118V1127.5V1238L445 1260L444 1258.5L443 1255.5L442.987 1255.33L424 1106V940L422 937Z" fill="white"/>
<path d="M496.5 890.5L471 786L472.5 810V834V861.5L474 889L475.5 923.5L477 999V1050L476.5 1072L475 1120L473 1163.5L472 1181.5V1205.5L473 1222V1236.5V1248L472 1258L502 1155.5L501 1154.5L500 1151.5L499 1147.5V1134.5L498 1082.5V998.5L497.5 967V944L498 931.5V926.5V903L496.5 890.5Z" fill="white"/>
<path d="M552 791L531 889L532 901.5L531 1098.5V1125L532 1154.5L553 1259L552 1252.5V1148V925.5V852V791Z" fill="white"/>
<path d="M587.5 793.5L612 835.5L609 838L607 841V853L608 1013.5V1092V1159V1193L609 1204.5L587.5 1251.5V1205.5L587 1153L587.5 1094.5V1049L587 1010.5V943.5L587.5 845.5V793.5Z" fill="white"/>
<path d="M638.5 836.5L662.5 830L660.5 835.5L659.5 844.5L659 869L659.5 894L660 971.5L660.5 1027V1081V1145L660 1164L659 1187V1202.5L659.5 1210L638.5 1207.5L640 1205.5L641 1201L641.5 1196V1188.5L640.5 1176.5L640 1162L639.5 1113V897.5L641.5 861.5V844.5L638.5 836.5Z" fill="white"/>
<path d="M712 748.5L689 827.5L691.5 835.5V986.5V999.5L706.5 1004L712 1002.5L715 999.5V995.5L712 988.5V880.5L714 776.5L712 748.5Z" fill="white"/>
<path d="M714.5 1298.5L690 1210L691.5 1072V1059.5V1049L695 1045L704 1042H708.5L713.5 1050.5V1072L712 1225.5V1279.5L714.5 1298.5Z" fill="white"/>
<path d="M765 1372L743 1298.5L745.5 1279.5L744 1094.5V1081L751 1076L761 1077.5L766.5 1083.5L764.5 1095.5L763.5 1322L765 1346.5L763.5 1358L765 1372Z" fill="white"/>
<path d="M797 1370.5V1336V1294L796.5 1234V1187.5V1144.5L795.5 1138L798.5 1134L805 1132.5H813.5L818 1134V1146.5V1223.5V1287.5V1325.5L817.5 1327L817 1325L815.5 1314.5L814.5 1306L813 1297.5L810 1290L808 1287L805.5 1284.5L804 1285L802 1288V1290.5L805 1289.5L807 1291L808 1292.5L810 1297L812 1303L814 1315L815.5 1330L816 1340V1348L817 1386.5V1416L817.5 1474.5V1545L816.5 1544.5L797 1370.5Z" fill="white"/>
<path d="M869 1637.5L849.5 1542.5V1494.5L850 1430.5L852 1388.5L852.5 1381L853 1373L852 1381L851.5 1384.5L851 1387L850.5 1388.5H850L849 1367.5L849.5 1239V1220.5V1203V1198.5L851 1195.5L860.5 1194H869V1327V1556L868 1617.5L869 1637.5Z" fill="white"/>
<path d="M923 1801L897.5 1636L900 1601V1550.5L898.5 1464V1408V1391L899 1373.5V1348V1323L898.5 1316.5L900 1313L906 1310L911.5 1309L916.5 1310L923 1314.5V1801Z" fill="white"/>
<path d="M979.5 1805H952L954.5 1797V1548.5L952 1536L960 1532.5L971 1536L977 1544.5V1681.5V1756V1801L979.5 1805Z" fill="white"/>
<path d="M1099.5 1805H1070.5L1074 1797V1767.5V1627V1563.5V1547.5L1075.5 1541L1077 1536L1083 1534H1086.5L1094 1536L1096.5 1538.5L1099.5 1805Z" fill="white"/>
<path d="M1126 1801L1150.5 1637L1148.5 1325V1312.5L1144.5 1307.5H1136L1126 1312.5V1801Z" fill="white" fill-opacity="0.97"/>
<path d="M1179 1628L1177 1637L1201.5 1542V1460V1231.5V1198.5L1199.5 1194L1193 1192H1185.5L1179 1194V1198.5V1303.5V1467.5V1598V1628Z" fill="white" fill-opacity="0.97"/>
<path d="M1232 1520.5L1234 1542L1252.5 1369.5V1198.5V1160.5V1145.5L1250 1137L1248 1130.5H1242.5L1232 1137V1369.5V1469.5V1520.5Z" fill="white" fill-opacity="0.97"/>
<path d="M1283.5 1101V1369.5L1305 1293V1106.5V1090V1081.5L1299 1078H1289L1283.5 1086V1101Z" fill="white" fill-opacity="0.97"/>
<path d="M1336 1293.5L1334.5 1299L1336.03 1293.07L1337 1280V1263L1336 1236.5V1048L1341.5 1042H1351L1357.5 1046V1058.5V1210L1336.03 1293.07L1336 1293.5Z" fill="white" fill-opacity="0.97"/>
<path d="M1408 1206.5L1389 1209V830.5L1408 839V1206.5Z" fill="white" fill-opacity="0.97"/>
<path d="M1460.5 1248L1437 1203.5V839L1460.5 794.5V1157V1248Z" fill="white" fill-opacity="0.97"/>
<path d="M1495 787L1522.5 885V1152.5L1495 1253V787Z" fill="white" fill-opacity="0.97"/>
<path d="M1551.5 897L1547.5 885L1578 787V822.5L1574 933.5V1003.5V1112.5L1578 1257L1551.5 1152.5V897Z" fill="white" fill-opacity="0.97"/>
<path d="M1626 1106.5L1608.5 1253L1604 787L1626 939V1106.5Z" fill="white" fill-opacity="0.97"/>
<path d="M1679.5 1078L1656 1106.5V939L1679.5 968V1078Z" fill="white" fill-opacity="0.97"/>
<path d="M1733.5 1048L1708.5 1078V968L1733.5 994.5V1048Z" fill="white" fill-opacity="0.97"/>
<path d="M1782 1042L1765 1048V994.5L1782 1003.5L1787.5 1016.5V1028.5L1782 1042Z" fill="white" fill-opacity="0.97"/>
<path d="M1336 994.5V747L1357.5 830.5V948.5V977V998L1351 1006.5L1341.5 1003.5L1336 994.5Z" fill="white" fill-opacity="0.97"/>
<path d="M1305 958.5V747L1283.5 675V958.5L1299 963.5L1305 958.5Z" fill="white" fill-opacity="0.97"/>
<path d="M1251.5 906.5V675L1233 497.5V658.5V906.5L1238 911L1251.5 906.5Z" fill="white" fill-opacity="0.97"/>
<path d="M1201.5 497.5L1179.5 411V839L1191.5 846.5L1201.5 843V497.5Z" fill="white" fill-opacity="0.97"/>
<path d="M1126 246.5L1148.5 404V756L1140 761H1131L1126 751.5V246.5Z" fill="white" fill-opacity="0.97"/>
<path d="M1073.5 246.5H1095.5V636H1087.5H1079L1073.5 626V246.5Z" fill="white" fill-opacity="0.97"/>
<path d="M952.5 246.5H976.5V633L969 636L956 633L952.5 246.5Z" fill="white" fill-opacity="0.97"/>
<path d="M899.5 411L922 246.5V751.5L915.5 756H906L899.5 751.5V411Z" fill="white" fill-opacity="0.97"/>
<path d="M846.5 497.5L868.5 411V843L856 846.5L846.5 839V497.5Z" fill="white" fill-opacity="0.97"/>
<path d="M795.5 675L816 502.5L819 515V547V620L815.5 906.5L809.5 911L795.5 906.5L798 888.5L795.5 771.5V675Z" fill="white" fill-opacity="0.97"/>
<path d="M742 747L766 675L763.5 753L766 957L759.5 963H751.5L745 957V894V822.5L742 747Z" fill="white" fill-opacity="0.97"/>
<path fill-rule="evenodd" clip-rule="evenodd" d="M980 933.383L1009.5 902L1011.5 891.5L1013.09 732.5L1012 719L1012.5 735L1012 753.5L1011.5 774L1011 803V835L1010.5 864L1011.5 882.5L1011 891.5L1009.5 897.5L1008 901L1004 906.5L1001 910L980 933.383ZM1024.5 987L1009.5 992L1004.5 999L1000.5 1008.5L1004.5 1022L1007.5 1032.5L1013.5 1034.5L1027 1037.5L1042 1032.5L1046.5 1022L1049 1006.5L1046.5 999L1038.5 992L1027 987H1024.5Z" fill="white" fill-opacity="0.97"/>
<path fill-rule="evenodd" clip-rule="evenodd" d="M1024.5 243.5H1018.5L1013.5 247.5L1012.5 251.5L1012 278L1011.5 326.5V379V417.5L1012 467.5V492.5V515L1009.5 535.5L1007 563L1003 604.5L997.5 634.5L995 651.5L991.5 667.5L986 691L976 724.5L965 756.5L953.5 785.5L939 818.5L924 846.5L904.5 878.5L880.5 913.5L854.5 943.5L829.5 968.5L798 992L774 1006.5L761 1012.5L750 1015.5L745 1017.5L740.5 1022V1025.5L742.5 1028L748.5 1029.5H756.5H760L771.5 1032.5L784 1037.5L803.5 1048L826 1062L835.5 1069.5L852 1087.5L863.5 1101L880.5 1130.5L899.5 1164L912 1198.5L933.5 1263L951.5 1334L968.5 1423L982.5 1508L993 1567L1007.5 1690L1009 1717L1010.5 1741L1012 1760.5V1773L1010.5 1789.5L1012 1797L1014.5 1801L1018.5 1803.5L1021.5 1804.5H1027L1033 1803.5L1036 1801L1038.5 1793.5L1039.5 1781.5L1037.5 1759L1038.5 1739L1040.5 1693.5V1683L1048 1633.5V1622L1053.5 1575.5L1063 1516L1070.5 1471L1081.5 1407L1094.5 1342.5L1115 1263L1136 1198.5L1163.5 1137L1187.5 1101L1207.5 1078L1229 1058.5L1256.5 1043L1284.5 1030.5L1301 1025L1307.5 1020L1301 1016.5L1282 1011L1256.5 996.5L1240 986.5L1218 969L1204.5 956.5L1191.5 943L1178.5 928L1165.5 912L1154.5 896.5L1145 882L1126 849.5L1101.5 801L1079 742.5L1062 678.5L1053.5 644L1045 592.5L1043.5 566.5L1040 532.5V422.5L1038.5 322V263.5V256.5L1036.5 249.5L1032.5 246.5L1028 243.5H1024.5ZM953.5 987L939 977L980 933.383L1001 910L1004 906.5L1008 901L1009.5 897.5L1011 891.5L1011.5 882.5L1010.5 864L1011 835V803L1011.5 774L1012 753.5L1012.5 735L1012 719L1011 689H1037.5L1038.5 694V708V719L1040 896.5L1041.5 901L1093 957.5L1105.5 972L1110.5 978.5L1109 981L1100 990L1091.5 999L1083 1011L1073 1029.5L1064.5 1050.5L1060 1066L1058 1076.5L1055.5 1081L1053 1091L1049 1125L1044.5 1152L1043 1174.5L1039 1241L1037 1274.5L1033.5 1331L1031 1380L1030 1435V1447.5L1029 1461L1027.5 1474.5L1025 1486.5L1024 1497.5L1023.5 1508L1023 1511L1022.5 1508L1023 1499.5L1023.5 1486.5L1019 1436.5L1015 1331.5L1009.5 1241L1007.5 1172L1000.5 1106.5L981.5 1034.5L953.5 987Z" fill="white"/>
<path d="M977.5 244.5L976.5 246L1012.5 170V171L1012 238L1006 244L987 242.5L981.5 243L977.5 244.5Z" fill="white"/>
<path d="M1040 182V177L1038 169.5V169L1039 170L1040 171.5L1040.38 173.332L1074 246.5H1073.5L1071.5 244.5L1068 243.5H1062H1054L1048.5 243L1043.5 241.5L1038.5 238L1039.5 234.5L1040 225.5V182Z" fill="white"/>
<path d="M1012 1874.5L979.5 1805L985 1806L990 1805L1002 1803.5H1008L1012 1806.5L1013 1816L1012 1833V1853L1013 1866.5L1012 1874.5Z" fill="white"/>
<path d="M1054 1804.5L1063 1805H1066.75L1071 1804L1070.5 1805L1037.5 1878.25V1830.5V1821.5L1038 1812.5L1038.5 1807.5L1040 1805.5L1042.5 1804.5L1047 1804L1054 1804.5Z" fill="white"/>
<path d="M1073.5 1788L1074 1797V1651L1073 1722.5V1753V1779L1073.5 1788Z" fill="white"/>
</svg>
