<svg xmlns="http://www.w3.org/2000/svg" height="2048" preserveAspectRatio="none" style="display: block;" version="1.1" viewBox="0 0 2048 2048" width="2048">
<defs>
	<linearGradient gradientUnits="userSpaceOnUse" id="Gradient1" x1="866.223" x2="857.827" y1="1282.39" y2="1282.59">
		<stop class="stop0" offset="0" stop-color="rgb(255,255,254)" stop-opacity="0.666667"></stop>
		<stop class="stop1" offset="1" stop-color="rgb(255,255,255)" stop-opacity="0.843137"></stop>
	</linearGradient>
	<linearGradient gradientUnits="userSpaceOnUse" id="Gradient2" x1="797.189" x2="812.023" y1="1211.16" y2="1210.6">
		<stop class="stop0" offset="0" stop-color="rgb(254,254,254)" stop-opacity="0.8"></stop>
		<stop class="stop1" offset="1" stop-color="rgb(255,254,254)" stop-opacity="0.909804"></stop>
	</linearGradient>
	<linearGradient gradientUnits="userSpaceOnUse" id="Gradient3" x1="619.367" x2="676.477" y1="1010.36" y2="1001.44">
		<stop class="stop0" offset="0" stop-color="rgb(255,255,254)" stop-opacity="0"></stop>
		<stop class="stop1" offset="1" stop-color="rgb(255,254,254)" stop-opacity="0.0823529"></stop>
	</linearGradient>
</defs>
<path d="M 1011.92 237.857 C 1011.95 217.393 1011.22 191.459 1012.07 170.945 C 1012.33 164.747 1033.04 166.452 1038.32 169.146 C 1040.93 172.513 1040.11 171.661 1040.57 176.655 C 1038.5 176.568 1036.38 176.913 1034.45 176.049 C 1033.73 176.202 1033.38 176.76 1032.61 176.761 C 1022.51 171.261 1022.48 182.673 1024.03 184.09 C 1034.59 193.729 1029.53 177.878 1034.97 188.443 C 1035.16 188.261 1035.13 187.795 1035.14 187.548 C 1037.58 193.991 1032.86 215.575 1037.28 223.509 C 1038.62 225.922 1035.82 234.913 1038.75 237.678 C 1051.86 250.855 1075.32 234.937 1075.67 252.134 C 1076.47 329.895 1076.43 407.662 1075.54 485.422 C 1075.34 526.446 1075.39 567.824 1075.89 608.873 C 1075.94 612.861 1073.01 626.901 1075.85 629.457 C 1080.32 633.488 1089.25 634.481 1094.32 630.586 C 1098.07 623.039 1092.99 309.514 1094.76 278.964 C 1095.12 272.788 1093.54 255.826 1094.46 248.598 C 1094.78 246.068 1097.41 243.739 1100.18 243.055 C 1106.81 241.417 1118.58 242.223 1125.37 243.646 C 1125.92 243.761 1127.48 244.795 1127.54 245.82 C 1129.18 274.713 1128.31 313.804 1128.32 342.293 L 1128.29 622.772 L 1128.56 734.059 C 1128.63 741.726 1126.04 752.247 1129.86 758.563 C 1132.98 760.321 1137.57 759.741 1140.92 758.761 C 1143.18 758.098 1145.4 756.738 1146.51 754.595 C 1148.95 749.838 1147.55 506.537 1147.58 474.322 C 1147.6 453.729 1145.62 422.946 1148.41 403.562 C 1156.84 403.725 1166.39 404.116 1174.72 403.317 L 1180.42 409.934 C 1179.46 435.706 1180.25 463.877 1180.21 489.965 L 1180.34 653.346 C 1180.18 699.304 1180.31 745.263 1180.71 791.219 C 1180.73 806.104 1180.69 820.386 1179.47 835.223 C 1178.86 842.654 1191.54 847.995 1198.47 842.219 C 1200.17 837.63 1199.23 808.312 1199.18 801.697 C 1198.47 702.869 1200.25 604.083 1199.52 505.255 C 1199.42 491.528 1206.12 495.642 1217.27 495.245 C 1220.89 495.116 1228.27 495.288 1231.6 496.187 C 1233.55 503.799 1232.48 560.124 1232.46 570.759 L 1232.4 791.263 L 1232.58 863.702 C 1232.64 876.306 1232.39 890.17 1233.37 902.716 C 1233.73 907.276 1234.65 907.702 1237.84 909.631 C 1242 909.008 1248.27 908.405 1251.01 905.214 C 1251.98 896.296 1251.6 883.119 1251.6 873.82 L 1251.57 819.958 C 1251.52 772.161 1252.49 721.121 1251.42 673.719 C 1259.51 666.566 1283.71 663.135 1283.92 676.396 C 1285.41 770.089 1282.9 864.15 1284.8 957.699 C 1284.84 959.803 1295.61 962.797 1297.92 963.019 C 1299.27 962.547 1302.72 961.099 1302.8 959.312 C 1305.69 888.583 1301.82 816.7 1304.41 745.839 C 1304.49 743.5 1330.42 738.882 1336.09 746.723 C 1337.44 756.039 1336.5 786.093 1336.57 797.235 L 1336.89 947.135 C 1337.03 962.373 1336.6 977.29 1336.34 992.47 C 1336.22 999.469 1341.93 1005.7 1349.02 1004.52 C 1360.74 1002.57 1355.62 973.629 1355.62 963.945 C 1355.85 932.317 1355.9 900.687 1355.77 869.058 C 1355.74 861.696 1354.12 832.984 1358.03 828.197 C 1364.94 827.472 1382.21 826.536 1388.06 829.138 C 1390.81 830.365 1389.64 852.846 1389.58 856.592 L 1388.52 906.137 C 1386.73 991.282 1389.88 1077.23 1388.97 1162.43 C 1388.83 1175.56 1390.72 1197.61 1389.21 1209.34 C 1384.09 1212.96 1364.66 1211.54 1357.56 1211.33 C 1356.42 1157.53 1358.4 1103.24 1357.42 1049.4 C 1357.29 1042.16 1346.16 1041.63 1341.34 1043.16 C 1339.78 1044.8 1337.14 1047.54 1337.05 1049.74 C 1336.47 1063.43 1336.97 1078.69 1336.95 1092.33 L 1336.54 1233.06 C 1336.49 1242.32 1338.01 1289.04 1334.97 1298.91 C 1334.31 1301.07 1315.03 1300.28 1309.37 1300.33 L 1303.52 1294.7 C 1304.55 1249.81 1303.74 1201.94 1303.69 1156.9 L 1303.66 1105.2 C 1303.68 1097.97 1305.82 1084.68 1301.77 1079.17 C 1298.47 1077.03 1297.78 1077.08 1293.84 1077.57 C 1280.64 1079.21 1284.19 1097.52 1284.11 1108.29 C 1283.99 1125.93 1283.97 1143.56 1284.05 1161.19 L 1284.15 1324.61 C 1284.1 1339.52 1284.36 1354.4 1284.28 1369.3 C 1284.27 1370.85 1280.68 1373.58 1279.14 1373.8 C 1269.31 1375.22 1259.45 1376.77 1251.45 1370.5 C 1252.51 1321.84 1251.53 1270.86 1251.37 1222.05 L 1251.18 1166.12 C 1251.15 1158.18 1256.34 1116.87 1234.79 1135.49 C 1234.12 1136.07 1232.81 1138.6 1233.14 1139.55 C 1232.78 1214.97 1233.77 1291.17 1233.15 1366.5 L 1232.46 1474.71 C 1232.39 1495.4 1231.53 1517.59 1234.13 1538.03 C 1234.34 1539.68 1234.3 1538.59 1234.06 1540.96 C 1232.61 1542.58 1231.7 1543.9 1230.61 1545.78 C 1224.31 1549.72 1218.94 1546.91 1209.79 1547.89 L 1201 1542.59 C 1202.95 1533.42 1200.88 1196.83 1200.85 1196.7 C 1200.43 1195.15 1199.02 1194.81 1197.73 1194.01 C 1192.87 1192.8 1186.17 1191.57 1181.24 1194.15 C 1178.48 1195.6 1178.36 1200.06 1178.37 1203.11 C 1178.4 1240.45 1179.35 1277.95 1179.44 1315.29 L 1178.04 1540.32 C 1177.77 1564.38 1179.57 1589.09 1178.41 1613.3 C 1178.09 1619.84 1180.64 1631.81 1176.84 1636.67 C 1170.01 1639.17 1157.39 1639.35 1150.41 1637.41 C 1147.57 1632.87 1148.78 1611 1148.77 1604.36 L 1148.69 1542.73 C 1148.6 1470.48 1148.77 1398.2 1148.53 1325.95 C 1148.51 1319.11 1149.54 1309.37 1141.32 1307.98 C 1134.8 1306.87 1131.89 1309 1126.83 1312.31 L 1126.39 1646.61 L 1125.96 1751.87 C 1125.97 1767.44 1125.99 1783.15 1126.44 1798.74 C 1126.51 1801.28 1125.57 1802.71 1124.11 1804.61 C 1120.79 1806.46 1101.89 1806.41 1098.08 1805.3 C 1094.63 1797.07 1097.67 1610.61 1096.68 1584.6 C 1096.32 1575.19 1097.03 1551.6 1096.42 1540.62 C 1096.31 1538.52 1094.52 1536.01 1092.65 1535.56 C 1086.64 1534.11 1083.14 1533.27 1077.73 1535.85 C 1072.66 1541.21 1074.17 1561.26 1074.1 1569.6 L 1074 1637.26 C 1073.96 1684.66 1072.77 1732.22 1073.09 1779.64 C 1073.13 1785.08 1075.2 1799.57 1072.72 1803.23 C 1062.63 1808.96 1039.45 1799.02 1038.55 1808.56 C 1036.99 1825.07 1037.91 1844.61 1037.81 1861.42 C 1037.78 1866.7 1038.5 1873.75 1037.44 1878.45 C 1031.91 1880.54 1021.15 1880.03 1015.04 1879.83 C 1008.48 1875.55 1012.56 1871.01 1012.07 1865.27 C 1010.54 1847.43 1012.61 1829.66 1012.3 1812.03 C 1011.99 1794.09 979.812 1814.25 976.638 1801.85 C 975.857 1786.84 976.625 1770.06 976.717 1754.93 L 976.532 1609.43 C 976.509 1588.43 976.817 1567.43 976.665 1546.45 C 976.582 1534.93 962.024 1531.07 955.603 1537.76 C 954.556 1540.22 954.225 1541.86 954.258 1544.6 C 955.23 1626.83 952.541 1709.11 954.302 1791.34 C 954.515 1801.32 955.894 1808.84 942.406 1805.58 C 928.147 1802.73 921.978 1813.8 922.635 1790.42 C 922.661 1770.37 922.664 1747.95 922.577 1726.8 L 921.846 1552.99 C 921.929 1475.71 922.151 1398.48 921.687 1321.22 C 921.589 1304.96 899.481 1308.23 899.282 1317.41 C 898.882 1335.9 899.455 1355.52 899.129 1374.17 C 896.429 1403.2 903.314 1626.59 897.757 1636.02 C 891.496 1639.36 875.703 1638.73 868.722 1637.82 C 867.337 1614.7 868.487 1579.59 868.519 1555.46 L 868.721 1397.3 C 869.731 1380.67 869.439 1349.45 868.887 1332.57 C 869.733 1287.42 869.156 1240.34 869.155 1195.04 C 863.146 1195.01 856.704 1193.73 851.275 1195.68 C 849.029 1198.29 849.795 1197.75 849.853 1202.32 C 849.436 1223.26 847.899 1382.15 850.429 1388.23 C 851.811 1386.36 852.436 1376.47 853.023 1372.99 C 848.993 1427.84 848.868 1486.46 850.366 1541.5 C 850.548 1548.2 838.724 1550.9 833.799 1550.39 C 823.878 1549.35 823.552 1551.96 816.6 1544.55 C 818.26 1510.99 817.081 1470.65 817.086 1436.59 C 817.165 1413.29 816.894 1389.99 816.275 1366.7 C 815.929 1347.56 816.78 1306.23 807.009 1290.93 C 804.013 1289.43 805.67 1289.75 801.755 1290.85 C 801.546 1288.16 802.549 1287.05 803.934 1284.87 L 805.496 1284.58 C 815.8 1293.02 814.543 1312.68 817.079 1324.78 L 817.498 1326.72 C 817.848 1292.65 817.932 1258.58 817.752 1224.51 C 818.759 1194.86 817.321 1163.7 817.486 1134.03 C 817.492 1132.94 813.128 1133.39 812.972 1133.4 C 804.502 1132.21 793.091 1132.46 796.53 1144.14 C 797.424 1158.08 796.018 1174.41 797.026 1187.62 C 796.668 1234.83 796.13 1288.03 797.594 1335.01 C 796.777 1346.94 797.583 1358.51 797.682 1369.88 C 797.73 1375.38 770.708 1379.61 764.322 1372.63 C 762.836 1366.02 764.181 1356.79 764.142 1349.53 L 763.747 1287.16 L 763.883 1130.13 C 763.959 1116.86 761.992 1097.34 765.368 1085.15 C 763.013 1074.55 744.938 1075.82 744.955 1083.3 C 744.983 1095.58 745.189 1108.58 745.247 1120.92 C 745.709 1164.43 745.662 1207.95 745.107 1251.47 C 745.006 1258.93 746.317 1295.07 743.623 1298.34 C 736.518 1301.45 724.378 1301.18 716.586 1299.32 C 713.682 1298.63 712.961 1294.36 712.787 1291.45 C 711.398 1268.23 712.158 1243.37 712.304 1220.16 L 712.409 1095.67 C 712.431 1088.25 712.425 1080.61 712.467 1073.19 C 712.54 1060.2 716.917 1031.78 694.024 1046.69 C 692.577 1048.2 692.092 1048.84 691.793 1050.99 C 690.534 1060.07 691.602 1070.71 691.608 1079.97 C 691.617 1092.93 693.145 1206.62 691.001 1210.21 C 690.275 1211.42 687.854 1211.81 686.521 1211.94 C 679.78 1212.59 664.866 1213.97 659.594 1209.98 C 657.792 1200.46 660.022 1171.87 660.088 1160.76 L 660.532 1040.59 L 659.551 902.788 C 659.472 890.885 656.673 836.428 662.573 829.735 C 670.002 826.809 681.249 826.243 689.175 826.815 C 693.059 827.096 692.004 844.977 691.985 847.849 C 691.649 897.746 691.698 947.662 691.781 997.557 C 692.211 998.162 692.641 998.766 693.072 999.371 C 700.105 1003.21 714.391 1008.31 714.74 994.943 C 713.956 993.36 712.121 989.783 712.116 988.134 C 711.937 919.371 711.75 850.585 712.583 781.823 C 712.717 770.83 712.908 758.191 711.475 747.451 L 718.396 742.431 C 725.811 743.63 739.362 742.726 743.589 745.404 C 744.919 751.999 744.708 765.554 744.838 772.851 C 745.206 792.417 745.357 811.986 745.289 831.555 C 745.397 869.064 748.165 919.771 744.275 955.738 C 744.483 955.951 744.691 956.165 744.899 956.378 L 745.962 957.424 C 750.067 961.501 751.775 963.661 757.837 963.25 C 760.469 962.073 763.645 959.469 763.815 956.502 C 764.469 945.093 763.388 916.753 763.726 906.927 C 764.563 882.606 762.204 680.414 765.099 674.059 C 771.301 669.117 788.683 668.745 795.27 673.709 C 796.279 674.469 796.46 678.743 796.464 680.209 C 796.656 742.924 796.761 805.638 798.061 868.343 C 797.939 874.019 797.575 881.593 798.841 887.01 C 800.329 893.375 797.273 900.028 795.999 906.947 C 819.683 911.896 815.089 908.902 815.144 889.001 C 815.195 870.064 817.165 848.488 815.142 829.596 C 815.978 823.174 815.607 801.168 815.636 793.847 L 816.058 719.248 C 816.799 659.018 820.534 599.239 818.739 538.87 C 818.309 524.412 819.178 516.217 816.283 501.397 C 818.726 498.672 820.527 496.211 824.314 495.928 C 829.283 495.361 843.514 493.446 847.006 497.495 C 850.023 500.993 848.757 520.9 848.739 525.835 C 848.668 541.396 848.69 556.957 848.804 572.518 C 849.067 620.76 849.952 670.035 849.67 718.198 C 849.386 743.117 849.3 768.038 849.414 792.958 C 849.367 806.323 848.946 820.377 849.617 833.674 C 849.889 839.076 850.046 840.716 853.707 843.796 C 858.24 845.266 862.406 843.917 867.263 843.049 C 868.304 833.541 867.785 814.13 867.771 803.806 L 867.658 732.808 L 868.04 490.617 C 868.145 472.532 868.08 454.447 867.846 436.364 C 867.784 428.205 867.573 418.989 868.047 410.834 C 868.193 408.331 871.287 405.58 873.187 403.344 C 881.922 404.028 885.788 404.158 894.474 403.544 C 896.029 405.012 899.576 408.253 899.65 410.052 C 900.409 428.47 900.045 453.441 900.028 471.387 L 900.162 658.162 C 900.232 687.808 900.069 717.458 900.4 747.101 C 900.558 761.323 920.213 756.279 920.309 753.253 C 920.804 737.644 920.246 720.946 920.18 705.209 L 920.137 381.922 L 920.358 291.417 C 920.36 284.653 919.107 248.159 921.464 245.188 C 927.624 241.548 940.977 243.416 948.475 243.455 C 953.727 243.483 955.664 248.366 955.706 253.331 L 956.019 516.034 L 956.199 597.922 C 956.21 607.16 956.013 616.22 955.681 625.45 C 955.556 628.912 956.346 629.596 958.173 631.78 C 961.576 633.134 965.076 633.788 968.745 633.121 C 976.986 631.622 975.654 624.045 975.542 617.792 C 974.916 583.072 974.871 247.183 976.276 245.53 C 981.295 239.628 998.452 243.767 1005.91 243.642 C 1007.66 242.167 1010.2 239.536 1011.92 237.857 z M 1038.03 1741.21 C 1039.99 1732.7 1039.29 1696.85 1039.99 1685.15 C 1041.25 1664.39 1049.39 1640.46 1047.81 1622.34 C 1051.49 1579.83 1059.27 1537.82 1066.01 1495.75 C 1084.63 1379.47 1123.57 1145.63 1215.99 1067.94 C 1233.25 1053.43 1251.89 1043.05 1272.47 1034.08 C 1282.94 1029.51 1298.51 1027.91 1306.91 1020.26 C 1301.18 1015.25 1285.02 1013.62 1277.84 1009.32 C 1260.91 999.175 1238.29 987.355 1223.5 974.334 C 1113.04 876.98 1060.93 723.455 1043.99 581.016 C 1043.23 574.632 1044.03 566.799 1042.93 560.551 C 1038.46 535.226 1039.84 510.588 1039.5 484.936 L 1038.22 339.768 C 1038 314.106 1039.46 288.059 1038.38 262.46 C 1038.18 257.834 1037.88 250.555 1034.08 247.387 C 1030.77 244.623 1022.76 243.401 1018.68 244.455 C 1016.12 245.117 1014.47 246.907 1013.28 249.198 C 1009.89 255.711 1012.79 486.815 1011.93 513.347 C 1011.6 523.515 1009.6 533.426 1008.78 543.528 C 1007.18 563.35 1005.85 583.282 1003.23 603.013 C 1001.78 613.987 999.214 624.887 997.313 635.797 C 996.012 643.271 995.337 650.83 993.739 658.256 C 965.929 787.519 889.853 952.885 764.021 1011.56 C 755.561 1015.5 746.397 1014.35 740.573 1022.78 C 740.717 1026.5 740.051 1024.95 742.604 1027.62 C 746.94 1029.28 750.214 1029.34 754.795 1029.09 C 775.353 1027.98 823.045 1058.14 837.791 1071.51 C 929.135 1154.34 967.21 1398.43 986.118 1520.9 C 987.555 1530.2 990.392 1539.28 991.691 1548.59 C 995.779 1577.88 997.961 1607.6 1001.32 1636.96 C 1003.55 1656.48 1007.44 1675.81 1008.34 1695.47 C 1008.76 1704.47 1008.63 1713.49 1009.14 1722.49 C 1009.91 1735.86 1011.55 1749.16 1011.84 1762.56 C 1012.05 1772.4 1010.06 1783.38 1011.58 1793.01 C 1012.12 1796.45 1013.2 1799.66 1016.01 1801.91 C 1019.39 1804.62 1026.91 1804.45 1030.99 1803.59 C 1032.66 1803.24 1034.54 1802.38 1035.61 1801.02 C 1041.68 1793.29 1037.75 1768.35 1037.59 1758.91 C 1037.49 1753.03 1038.27 1747.04 1038.03 1741.21 z" fill="rgb(110,74,204)" transform="translate(0,0)"></path>
<path d="M 1055.85 1081.17 C 1050.18 1099.63 1050.71 1118.04 1047.21 1136.38 C 1042.67 1160.14 1043.71 1181.59 1041.96 1204.99 C 1037.64 1262.44 1033.96 1319.82 1031.22 1377.39 C 1029.45 1414.39 1032.84 1450.97 1025.22 1487.67 C 1024.07 1493.2 1023.99 1505.95 1023.46 1512.24 C 1022.45 1510.86 1022.28 1508.99 1022.46 1507.25 C 1024.85 1483.85 1019.62 1455.82 1018.6 1431.88 L 1010.11 1251.87 C 1006.97 1188.12 1006.17 1118.73 987.17 1057.35 C 980.116 1034.56 968.87 1011.4 953.546 992.985 C 949.567 988.204 940.369 984.695 938.284 979.093 C 937.697 977.515 938.329 976.824 939.262 975.493 C 942.94 970.249 949.38 965.096 953.926 960.442 C 966.629 947.513 979.072 934.331 991.248 920.905 C 1017.71 892.071 1010.12 898.122 1010.45 858.336 C 1010.79 817.409 1010.39 776.277 1012.49 735.365 C 1012.92 726.91 1009.04 692.6 1011.23 688.753 C 1013.67 687.601 1032.54 688.796 1037.51 688.764 C 1040.32 692.876 1038.89 705.35 1038.83 711.111 L 1038.82 755.119 C 1038.62 801.411 1039.58 850.234 1040.15 896.667 C 1040.18 899.689 1051.95 912.535 1054.71 915.599 C 1058.79 918.572 1108.26 973.967 1110.99 978.29 C 1108.55 983.076 1097.34 992.368 1093.04 997.707 C 1076.74 1017.93 1064.08 1046.49 1058.92 1071.95 C 1057.85 1077.24 1058.48 1076.21 1055.85 1081.17 z M 1045.22 1021.83 C 1047.42 1016.3 1048.82 1006.4 1045.89 1000.97 C 1041.65 997.344 1040.22 994.676 1035.7 991.485 C 1024.11 983.298 1021.82 988.065 1011.52 992.377 C 1006.75 994.373 1009.33 997.255 1003.37 1001.2 C 999.968 1009.1 1000.91 1013.23 1004.28 1021.74 C 1004.88 1026.46 1007.6 1031.63 1012.98 1031.97 C 1015.18 1032.1 1016.84 1034.77 1018.61 1035.67 C 1033.2 1040.25 1039.33 1033.04 1045.22 1021.83 z" fill="rgb(110,74,204)" transform="translate(0,0)"></path>
<path d="M 1003.37 1001.2 C 1009.33 997.255 1006.75 994.373 1011.52 992.377 C 1021.82 988.065 1024.11 983.298 1035.7 991.485 C 1040.22 994.676 1041.65 997.344 1045.89 1000.97 L 1044.01 1001.19 C 1039.89 1001.3 1038.55 1001.03 1039.45 1006.48 C 1039.91 1009.27 1039 1020.48 1039.67 1021.57 C 1040.32 1021.86 1043.93 1021.72 1045.22 1021.83 C 1039.33 1033.04 1033.2 1040.25 1018.61 1035.67 C 1016.84 1034.77 1015.18 1032.1 1012.98 1031.97 C 1007.6 1031.63 1004.88 1026.46 1004.28 1021.74 C 1011.77 1019.49 1007.54 1017.4 1008.6 1009.48 C 1009.69 1001.42 1009.91 1002.83 1003.37 1001.2 z" fill="rgb(254,253,253)" fill-opacity="0.0196078" transform="translate(0,0)"></path>
<path d="M 1045.22 1021.83 C 1043.93 1021.72 1040.32 1021.86 1039.67 1021.57 C 1039 1020.48 1039.91 1009.27 1039.45 1006.48 C 1038.55 1001.03 1039.89 1001.3 1044.01 1001.19 L 1045.89 1000.97 C 1048.82 1006.4 1047.42 1016.3 1045.22 1021.83 z" fill="rgb(254,253,253)" fill-opacity="0.0117647" transform="translate(0,0)"></path>
<path d="M 1007.07 900.299 C 1008.47 891.353 1008.03 873.862 1008.02 864.314 L 1007.88 804.15 C 1007.83 779.535 1009.71 753.444 1009.26 729.487 C 1009.09 721.485 1008.75 713.487 1008.25 705.499 C 1007.77 698.867 1005.39 693.013 1009.17 687.531 C 1018.05 682.655 1023.24 687.991 1032.77 686.46 C 1035.77 685.978 1035.98 685.907 1038.86 686.753 C 1042.8 691.273 1041.05 746.746 1041.03 755.289 L 1041.1 879.277 C 1041.09 898.544 1043.04 900.373 1056.65 914.007 L 1054.71 915.599 C 1051.95 912.535 1040.18 899.689 1040.15 896.667 C 1039.58 850.234 1038.62 801.411 1038.82 755.119 L 1038.83 711.111 C 1038.89 705.35 1040.32 692.876 1037.51 688.764 C 1032.54 688.796 1013.67 687.601 1011.23 688.753 C 1009.04 692.6 1012.92 726.91 1012.49 735.365 C 1010.39 776.277 1010.79 817.409 1010.45 858.336 C 1010.12 898.122 1017.71 892.071 991.248 920.905 C 979.072 934.331 966.629 947.513 953.926 960.442 C 949.38 965.096 942.94 970.249 939.262 975.493 C 938.329 976.824 937.697 977.515 938.284 979.093 C 940.369 984.695 949.567 988.204 953.546 992.985 C 968.87 1011.4 980.116 1034.56 987.17 1057.35 C 1006.17 1118.73 1006.97 1188.12 1010.11 1251.87 L 1018.6 1431.88 C 1019.62 1455.82 1024.85 1483.85 1022.46 1507.25 C 1022.28 1508.99 1022.45 1510.86 1023.46 1512.24 C 1023.99 1505.95 1024.07 1493.2 1025.22 1487.67 C 1032.84 1450.97 1029.45 1414.39 1031.22 1377.39 C 1033.96 1319.82 1037.64 1262.44 1041.96 1204.99 C 1043.71 1181.59 1042.67 1160.14 1047.21 1136.38 C 1050.71 1118.04 1050.18 1099.63 1055.85 1081.17 C 1057.1 1090.45 1054.03 1093.14 1053.26 1101.76 C 1052.06 1117.78 1049.44 1133.56 1047.65 1149.47 C 1046.86 1156.51 1044.84 1166.32 1044.67 1173 C 1044.08 1196.75 1043.63 1220.13 1040.83 1243.78 C 1039.66 1253.59 1041.11 1266.35 1039.52 1275.77 C 1035.31 1300.67 1037.1 1325.65 1035.34 1350.33 C 1032.78 1386.08 1031.83 1421.12 1031.97 1456.97 C 1031.71 1484.04 1025.83 1510.58 1026.91 1537.84 C 1024.87 1555.78 1027.98 1578.37 1025.58 1597.03 C 1025.41 1598.37 1023.51 1601.66 1022.75 1602.39 C 1022.62 1602.37 1022.48 1602.35 1022.35 1602.33 C 1021.66 1601.61 1021.21 1599.89 1020.49 1598.69 C 1014.62 1557.89 1019.6 1513.68 1017.7 1472.37 C 1015.62 1427.18 1016.74 1382.07 1012.32 1336.99 C 1011.11 1324.7 1012.68 1310.13 1011.19 1298.01 C 1007.89 1271.1 1008.52 1244.73 1007.27 1217.85 C 1005.83 1192.35 1003.64 1166.89 1000.68 1141.51 C 996.828 1106.74 991.303 1068.43 977.059 1036.6 C 975.498 1033.11 972.875 1025.04 970.206 1022.91 C 959.567 1009.15 954.797 991.638 937.033 983.603 C 934.872 982.626 935.475 978.982 935.503 977.04 C 936.198 975.576 1001.06 906.114 1007.07 900.299 z" fill="rgb(110,74,204)" fill-opacity="0.654902" transform="translate(0,0)"></path>
<path d="M 1056.65 914.007 C 1063.53 920.152 1077.52 936.967 1084.51 944.719 C 1090.7 951.587 1108.88 970.05 1113.47 976.374 C 1113.34 977.546 1113.21 978.718 1113.08 979.891 C 1105.55 990.863 1092.59 999.773 1085.81 1011.31 C 1068.91 1040.08 1056.94 1078.18 1053.63 1111.51 C 1050.53 1142.79 1045.18 1173.52 1045.3 1204.74 C 1045.45 1209.84 1045.51 1215.94 1045.12 1221.01 L 1040.76 1283.71 C 1040.08 1292.72 1037.53 1306.35 1037.82 1314.78 C 1038.92 1345.57 1034.46 1377.05 1034 1407.36 C 1033.07 1411.3 1033.31 1449.89 1033.35 1456.62 C 1033.49 1481.34 1030.04 1506.1 1030.07 1530.33 L 1030.52 1590.5 C 1030.75 1613.06 1033.85 1626.27 1023.56 1647.08 L 1022.11 1647.37 C 1016.66 1639.21 1020.23 1616.23 1017.96 1604.71 C 1017.01 1595.28 1015.26 1584.47 1014.8 1575.33 C 1014.23 1564.29 1014.94 1551.87 1014.89 1540.64 L 1014.77 1440.28 C 1014.46 1409.63 1013.68 1382.06 1011.07 1351.5 C 1009.51 1336.86 1011.57 1319.5 1009.75 1305.05 C 1005.29 1269.51 1007.98 1234.37 1003.48 1198.91 C 1002.22 1188.92 1002.95 1178.06 1001.75 1168.06 C 997.472 1132.45 994.362 1096.61 984.767 1061.92 C 981.742 1050.46 971.478 1032.22 970.206 1022.91 C 972.875 1025.04 975.498 1033.11 977.059 1036.6 C 991.303 1068.43 996.828 1106.74 1000.68 1141.51 C 1003.64 1166.89 1005.83 1192.35 1007.27 1217.85 C 1008.52 1244.73 1007.89 1271.1 1011.19 1298.01 C 1012.68 1310.13 1011.11 1324.7 1012.32 1336.99 C 1016.74 1382.07 1015.62 1427.18 1017.7 1472.37 C 1019.6 1513.68 1014.62 1557.89 1020.49 1598.69 C 1020.44 1609.18 1021.38 1619.65 1023.31 1629.96 C 1025.06 1625.88 1028.31 1618.24 1028.08 1614.01 C 1027.49 1603.17 1030.72 1544.18 1026.91 1537.84 C 1025.83 1510.58 1031.71 1484.04 1031.97 1456.97 C 1031.83 1421.12 1032.78 1386.08 1035.34 1350.33 C 1037.1 1325.65 1035.31 1300.67 1039.52 1275.77 C 1041.11 1266.35 1039.66 1253.59 1040.83 1243.78 C 1043.63 1220.13 1044.08 1196.75 1044.67 1173 C 1044.84 1166.32 1046.86 1156.51 1047.65 1149.47 C 1049.44 1133.56 1052.06 1117.78 1053.26 1101.76 C 1054.03 1093.14 1057.1 1090.45 1055.85 1081.17 C 1058.48 1076.21 1057.85 1077.24 1058.92 1071.95 C 1064.08 1046.49 1076.74 1017.93 1093.04 997.707 C 1097.34 992.368 1108.55 983.076 1110.99 978.29 C 1108.26 973.967 1058.79 918.572 1054.71 915.599 L 1056.65 914.007 z" fill="rgb(220,207,242)" fill-opacity="0.243137" transform="translate(0,0)"></path>
<path d="M 1034 1407.36 C 1036.01 1421.59 1033.38 1439.78 1034.21 1454.49 C 1035.59 1478.89 1031.73 1504.84 1032.55 1529.01 C 1033.59 1559.81 1033.23 1591.24 1034.94 1621.95 C 1035.24 1627.37 1039.27 1640.33 1040.69 1645.8 C 1043.72 1641.57 1047.31 1622.78 1047.81 1622.34 C 1049.39 1640.46 1041.25 1664.39 1039.99 1685.15 C 1039.29 1696.85 1039.99 1732.7 1038.03 1741.21 C 1036.85 1730.57 1037.64 1712.65 1037.49 1701.1 C 1037.28 1685.39 1036.47 1671.81 1035.61 1656.28 L 1036.39 1655.73 L 1039.33 1658.7 C 1040.98 1653 1035.47 1641.79 1031.71 1637.49 C 1025.65 1639.99 1029.84 1646.91 1025.66 1651.95 C 1021.95 1652.8 1022.53 1654.16 1019.94 1654.49 C 1018.95 1645.63 1015.68 1644.56 1016.97 1632.74 C 1017.87 1624.53 1017.47 1613.45 1017.96 1604.71 C 1020.23 1616.23 1016.66 1639.21 1022.11 1647.37 L 1023.56 1647.08 C 1033.85 1626.27 1030.75 1613.06 1030.52 1590.5 L 1030.07 1530.33 C 1030.04 1506.1 1033.49 1481.34 1033.35 1456.62 C 1033.31 1449.89 1033.07 1411.3 1034 1407.36 z" fill="rgb(246,242,252)" fill-opacity="0.0627451" transform="translate(0,0)"></path>
<path d="M 1026.91 1537.84 C 1030.72 1544.18 1027.49 1603.17 1028.08 1614.01 C 1028.31 1618.24 1025.06 1625.88 1023.31 1629.96 C 1021.38 1619.65 1020.44 1609.18 1020.49 1598.69 C 1021.21 1599.89 1021.66 1601.61 1022.35 1602.33 C 1022.48 1602.35 1022.62 1602.37 1022.75 1602.39 C 1023.51 1601.66 1025.41 1598.37 1025.58 1597.03 C 1027.98 1578.37 1024.87 1555.78 1026.91 1537.84 z" fill="rgb(166,145,214)" fill-opacity="0.376471" transform="translate(0,0)"></path>
<path d="M 586.614 637.45 C 591.589 637.545 595.965 639.963 596.072 645.451 C 596.358 660.216 596.191 675.004 596.19 689.777 L 596.204 782.707 L 587.718 793.63 C 588.396 820.827 587.188 849.705 587 877 L 587.16 988.555 C 587.524 1047.98 587.509 1107.41 587.113 1166.84 C 587.128 1195.04 588.178 1222.89 587.475 1251.11 C 590.66 1255.29 592.042 1257.74 594.613 1262.25 C 593.803 1286.64 595.025 1314.73 594.87 1339.47 C 594.787 1352.77 593.947 1392.44 596.018 1403.22 C 585.144 1414.84 586.014 1407.11 572.019 1408.94 C 568.402 1408.06 563.673 1407.05 563.881 1402.16 C 564.231 1393.96 564.521 1385.96 564.44 1377.75 L 564.035 1303.76 C 564.001 1292.39 564.093 1280.91 564.025 1269.53 C 563.968 1260.02 558.22 1264.04 552.643 1258.66 C 550.153 1250.72 551.692 1148.03 551.704 1133.06 L 551.88 791.07 C 557.971 783.983 564.669 785.46 564.649 775.926 C 564.58 742.072 564.793 708.198 564.643 674.34 C 564.597 663.903 564.867 653.537 563.853 643.135 C 573.662 635.203 575.266 639.768 586.614 637.45 z" fill="rgb(110,74,204)" transform="translate(0,0)"></path>
<path d="M 1459.05 639.056 C 1467.87 639.786 1476.93 637.215 1482.8 641.857 C 1485.27 647.224 1483.56 762.284 1483.84 776.734 C 1483.94 782.299 1490.55 781.007 1494.14 784.493 C 1495.26 785.587 1496.36 787.283 1496.34 788.864 C 1496.2 798.266 1496.02 808.09 1496.04 817.438 C 1496.02 841.158 1496.16 864.877 1496.45 888.594 L 1496.89 1117.96 C 1496.57 1161.82 1494.68 1210.26 1496.37 1253.78 C 1492.21 1256.04 1484.9 1259.12 1484.37 1264.31 C 1483.42 1273.52 1484.06 1283.17 1484.05 1292.48 L 1483.95 1367.9 C 1483.98 1376.26 1484.8 1400.47 1483.45 1407.2 C 1479.95 1408.44 1477.08 1409.02 1473.36 1409.01 C 1468.47 1409 1460.82 1409.89 1456.93 1406.61 C 1454.21 1404.33 1455.55 1326.88 1455.5 1315.54 C 1455.43 1297.81 1454.47 1279.65 1455.86 1261.99 C 1456.34 1255.99 1460.04 1251.04 1460.11 1245.15 C 1460.79 1184.96 1459.38 1124.58 1459.19 1064.36 C 1458.94 984.229 1459.2 904.092 1459.99 823.96 C 1460.01 815.121 1460.17 804.405 1459.75 795.711 C 1458.92 789.489 1455.66 782.769 1455.58 776.518 C 1455.04 732.665 1455.94 688.783 1455.16 644.938 C 1455.12 642.492 1457.45 640.584 1459.05 639.056 z" fill="rgb(110,74,204)" transform="translate(0,0)"></path>
<path d="M 627.624 833.749 C 641.067 827.781 640.789 835.198 648.593 832.283 C 658.251 828.676 687.364 813.219 696.096 827.41 C 697.33 829.417 694.836 853.301 694.746 859.252 L 694.211 949.536 C 694.216 960.803 695.192 989.91 693.072 999.371 C 692.641 998.766 692.211 998.162 691.781 997.557 C 691.698 947.662 691.649 897.746 691.985 847.849 C 692.004 844.977 693.059 827.096 689.175 826.815 C 681.249 826.243 670.002 826.809 662.573 829.735 C 656.673 836.428 659.472 890.885 659.551 902.788 L 660.532 1040.59 L 660.088 1160.76 C 660.022 1171.87 657.792 1200.46 659.594 1209.98 C 664.866 1213.97 679.78 1212.59 686.521 1211.94 C 687.854 1211.81 690.275 1211.42 691.001 1210.21 C 693.145 1206.62 691.617 1092.93 691.608 1079.97 C 691.602 1070.71 690.534 1060.07 691.793 1050.99 C 692.092 1048.84 692.577 1048.2 694.024 1046.69 C 694.07 1048.46 694.075 1049.78 694.027 1051.55 C 693.376 1088.93 693.195 1126.32 693.486 1163.71 C 693.502 1174.29 694.456 1203.34 693.475 1212.13 C 686.318 1215.32 677.542 1213.91 667.701 1217.25 C 661.997 1215.46 652.689 1210.57 650.945 1210.15 C 641.73 1207.95 611.55 1214.04 604.959 1206.57 C 607.196 1192.27 606.532 1175.46 606.551 1160.75 L 606.594 1096.02 L 605.409 844.132 C 605.397 840.104 604.861 837.555 607.214 834.408 C 610.26 832.692 611.228 832.248 614.489 830.961 C 618.833 831.867 623.315 832.739 627.624 833.749 z M 657.614 1143.25 C 657.962 1057.39 658.765 971.323 656.032 885.475 C 655.808 878.421 656.021 871.478 655.451 864.409 C 654.667 871.372 655.809 908.563 653.673 911.518 C 646.228 901.002 647.552 864.006 648.343 850.387 C 648.571 846.463 647.536 842.955 647.492 839.25 C 646.158 841.664 646.712 841.433 646.907 843.764 C 648.898 867.592 643.768 894.548 643.232 917.368 C 641.99 970.311 641.973 1024.01 642.03 1076.94 L 642.153 1130.61 C 642.172 1139.99 640.572 1169.13 647.864 1174.21 C 652.753 1172.18 652.216 1173.19 653.68 1167.62 L 654.456 1173.48 L 655.255 1173 C 657.002 1160.92 657.634 1155.66 657.614 1143.25 z" fill="rgb(254,253,253)" fill-opacity="0.141176" transform="translate(0,0)"></path>
<path d="M 612.218 834.899 C 617.033 835.431 636.462 835.665 638.444 836.312 C 643.552 841.714 641.126 868.833 640.9 877.691 C 640.466 895.441 640.209 913.195 640.129 930.95 C 639.526 999.816 639.409 1068.68 639.778 1137.55 C 639.826 1150.83 640.115 1164.1 640.645 1177.36 C 640.919 1184.47 643.061 1202.51 638.772 1207.56 C 630.825 1207.9 614.071 1210.05 608.498 1204.47 C 607.003 1198.84 607.894 1142.9 607.906 1134.22 L 607.59 971.553 L 607.071 873.48 C 607.102 863.066 606.661 851.445 607.345 841.038 C 607.574 837.568 609.816 836.519 612.218 834.899 z" fill="rgb(110,74,204)" transform="translate(0,0)"></path>
<path d="M 647.492 839.25 C 647.536 842.955 648.571 846.463 648.343 850.387 C 647.552 864.006 646.228 901.002 653.673 911.518 C 655.809 908.563 654.667 871.372 655.451 864.409 C 656.021 871.478 655.808 878.421 656.032 885.475 C 658.765 971.323 657.962 1057.39 657.614 1143.25 C 657.634 1155.66 657.002 1160.92 655.255 1173 L 654.456 1173.48 L 653.68 1167.62 C 652.216 1173.19 652.753 1172.18 647.864 1174.21 C 640.572 1169.13 642.172 1139.99 642.153 1130.61 L 642.03 1076.94 C 641.973 1024.01 641.99 970.311 643.232 917.368 C 643.768 894.548 648.898 867.592 646.907 843.764 C 646.712 841.433 646.158 841.664 647.492 839.25 z" fill="url(#Gradient3)" transform="translate(0,0)"></path>
<path d="M 445.394 784.05 C 455.294 785.127 462.854 784.833 470.879 785.804 C 474.352 795.406 471.864 845.139 472.636 858.598 C 478.696 964.266 478.536 1069.97 472.418 1175.57 C 470.888 1201.98 474.723 1231.08 472.144 1257.67 C 472.013 1259.02 468.678 1262.34 467.71 1263.34 C 466.07 1263.33 466.443 1263.48 465.077 1263.01 C 455.988 1259.91 454.537 1264.85 444.86 1259.91 C 441.001 1255.77 442.317 1228.52 442.185 1221.46 C 441.303 1190.69 441.135 1159.91 441.681 1129.14 C 441.785 1124.66 441.894 1119.96 442.278 1115.5 C 444.24 1092.72 443.322 1070.06 443.222 1047.2 L 443.523 984.608 C 443.481 963.058 440.981 939.928 441.367 918.361 C 441.946 885.98 441.601 853.701 442.842 821.367 C 443.195 812.161 441.368 801.08 440.953 791.759 C 440.88 790.126 444.259 785.648 445.394 784.05 z" fill="rgb(110,74,204)" transform="translate(0,0)"></path>
<path d="M 1579.06 784.035 C 1585.48 783.009 1598.93 783.019 1605.18 785.348 C 1607.8 788.21 1606.08 801.086 1606.05 805.878 C 1605.99 821.191 1606.28 836.438 1606.56 851.742 C 1607.4 923.794 1607.51 995.854 1606.9 1067.91 C 1606.79 1082.57 1605.32 1097.95 1605.39 1112.25 L 1606.87 1221.31 C 1606.92 1231.35 1607.11 1241.41 1607.87 1251.47 C 1608.1 1254.5 1605.86 1255.88 1603.63 1258.23 C 1602.62 1259.7 1602.8 1259.25 1601.01 1260.23 C 1593.58 1260.06 1583.75 1261.58 1578 1258.15 C 1574.45 1253.92 1575.71 1223.31 1575.7 1216.05 L 1575.42 1133.82 C 1575.25 1116.61 1573.29 1098.93 1573.43 1082 C 1573.88 1028.79 1570.44 975.003 1575.06 922.02 C 1575.84 913.027 1575.53 902.715 1575.62 893.627 C 1575.82 871.816 1575.91 850.004 1575.88 828.193 C 1575.87 817.614 1573.91 791.914 1579.06 784.035 z" fill="rgb(110,74,204)" transform="translate(0,0)"></path>
<path d="M 1407.82 1206.81 C 1407.2 1187.36 1408.34 1159.25 1408.39 1139.03 L 1408.49 979.552 L 1408.22 884.948 C 1408.19 874.56 1407.55 846.505 1408.85 837.633 C 1412.82 835.364 1431.6 835.632 1437.15 835.764 L 1438.34 837.309 C 1438.85 844.63 1438.67 851.743 1438.77 859.052 C 1439.8 934.352 1439.56 1009.74 1439.57 1085.04 L 1439.56 1161.85 C 1439.56 1172.11 1440.13 1195.93 1438.4 1205.06 C 1433.51 1207.95 1414.45 1206.89 1407.82 1206.81 z" fill="rgb(110,74,204)" transform="translate(0,0)"></path>
<path d="M 1126.83 1312.31 C 1131.89 1309 1134.8 1306.87 1141.32 1307.98 C 1149.54 1309.37 1148.51 1319.11 1148.53 1325.95 C 1148.77 1398.2 1148.6 1470.48 1148.69 1542.73 L 1148.77 1604.36 C 1148.78 1611 1147.57 1632.87 1150.41 1637.41 C 1157.39 1639.35 1170.01 1639.17 1176.84 1636.67 C 1180.64 1631.81 1178.09 1619.84 1178.41 1613.3 C 1179.57 1589.09 1177.77 1564.38 1178.04 1540.32 L 1179.44 1315.29 C 1179.35 1277.95 1178.4 1240.45 1178.37 1203.11 C 1178.36 1200.06 1178.48 1195.6 1181.24 1194.15 C 1186.17 1191.57 1192.87 1192.8 1197.73 1194.01 C 1201.7 1205.08 1198.24 1286.08 1192.79 1299.03 C 1190.54 1299.99 1186.34 1301.32 1185.83 1304.76 C 1184.43 1314.14 1180.42 1329.38 1189.27 1336.34 C 1197.37 1342.71 1195.79 1363.98 1197.54 1373.94 C 1197.99 1391.14 1200.93 1426.86 1199 1443.03 L 1198.86 1441.85 C 1196.7 1422.06 1199.8 1374.13 1190.06 1360.25 C 1186.39 1359.58 1183.54 1362.76 1183.24 1366.23 C 1181.21 1389.91 1181.44 1414.07 1181.23 1437.87 C 1180.38 1488.79 1180.17 1539.72 1180.6 1590.65 C 1180.64 1602.84 1181.04 1622.95 1180.03 1635.63 C 1179.96 1636.57 1175.81 1640.45 1174.75 1641.45 C 1167.5 1640.87 1152.52 1641.72 1148.19 1638.16 C 1145.37 1630.89 1147.03 1593.26 1147.01 1583.16 C 1146.44 1516.66 1146.3 1450.17 1146.6 1383.68 C 1146.52 1363.1 1146.44 1342.54 1145.9 1321.97 C 1145.73 1315.73 1145.4 1312.2 1139.48 1308.73 C 1136.87 1308.59 1136.52 1308.3 1133.97 1310.16 C 1130.69 1312.53 1128.69 1319.42 1128.8 1323.2 C 1129.32 1340.89 1129.14 1358.71 1129.08 1376.39 L 1129.11 1519.33 C 1129.19 1613.14 1127.28 1709.78 1128.85 1803.28 C 1126.75 1805.24 1125.09 1806.64 1123.37 1808.98 C 1114.21 1808.47 1101.85 1810.1 1095.33 1805.97 C 1093.27 1802.49 1094.53 1771.99 1094.54 1765.51 L 1094.64 1586.15 C 1094.59 1572.67 1094.53 1555.45 1094.23 1541.65 C 1094.18 1539.43 1091.63 1537.85 1090.02 1536.77 C 1081.02 1536.1 1077.07 1536.55 1076.99 1546.53 C 1076.32 1624.52 1076.41 1702.5 1076.22 1780.51 C 1076.21 1786.2 1077.64 1799.18 1075.41 1804.67 C 1070.86 1810.27 1048.07 1807.44 1041.21 1807.64 L 1041.04 1809.53 C 1040.23 1819.1 1042.33 1876.66 1038.83 1879.68 C 1033.14 1884.58 1020.67 1882.86 1013.62 1882.77 C 1010.17 1878.27 1009.23 1877.64 1008.7 1872.46 L 1008.47 1870.48 C 1006.67 1853.52 1009.82 1831.36 1010.1 1814.26 C 1010.14 1811.81 1009.03 1810.19 1007.55 1808.4 C 996.975 1802.59 979.012 1816.27 973.724 1803.05 C 972.525 1800.05 975.016 1785.33 974.14 1778.51 C 974.391 1776.18 974.547 1773.84 974.61 1771.5 C 975.66 1724.89 974.313 1674.59 974.27 1627.83 C 974.387 1607.82 974.357 1587.81 974.18 1567.8 C 974.09 1560.02 973.998 1551.83 973.788 1544.02 C 973.698 1540.66 972.122 1539.92 969.758 1537.42 C 965.387 1537.86 961.01 1538.24 956.629 1538.57 C 960.144 1614.45 954.497 1693.11 956.844 1769.27 C 957.172 1779.92 958.157 1794.09 956.659 1804.27 C 948.999 1811.29 935.493 1807.62 924.65 1809.24 C 923.023 1806.75 921.829 1804.6 919.648 1802.56 L 919.358 1524.31 C 919.65 1474.21 919.617 1424.1 919.261 1374 C 919.191 1356.83 920.077 1339.31 919.56 1322.2 C 919.475 1319.37 918.346 1316.45 916.295 1314.45 C 914.409 1312.61 911.583 1311.62 908.958 1311.67 C 906.652 1311.72 904.517 1312.83 903.26 1314.77 C 898.621 1321.96 901.01 1550.25 901.021 1575.02 C 901.026 1585.32 902.801 1630.85 899.39 1637.84 C 898.945 1638.76 897.325 1639.58 896.396 1639.88 C 890.825 1641.69 883.222 1640.71 877.286 1640.71 C 873.057 1640.14 872.635 1639.77 868.722 1637.82 C 875.703 1638.73 891.496 1639.36 897.757 1636.02 C 903.314 1626.59 896.429 1403.2 899.129 1374.17 C 899.455 1355.52 898.882 1335.9 899.282 1317.41 C 899.481 1308.23 921.589 1304.96 921.687 1321.22 C 922.151 1398.48 921.929 1475.71 921.846 1552.99 L 922.577 1726.8 C 922.664 1747.95 922.661 1770.37 922.635 1790.42 C 921.978 1813.8 928.147 1802.73 942.406 1805.58 C 955.894 1808.84 954.515 1801.32 954.302 1791.34 C 952.541 1709.11 955.23 1626.83 954.258 1544.6 C 954.225 1541.86 954.556 1540.22 955.603 1537.76 C 962.024 1531.07 976.582 1534.93 976.665 1546.45 C 976.817 1567.43 976.509 1588.43 976.532 1609.43 L 976.717 1754.93 C 976.625 1770.06 975.857 1786.84 976.638 1801.85 C 979.812 1814.25 1011.99 1794.09 1012.3 1812.03 C 1012.61 1829.66 1010.54 1847.43 1012.07 1865.27 C 1012.56 1871.01 1008.48 1875.55 1015.04 1879.83 C 1021.15 1880.03 1031.91 1880.54 1037.44 1878.45 C 1038.5 1873.75 1037.78 1866.7 1037.81 1861.42 C 1037.91 1844.61 1036.99 1825.07 1038.55 1808.56 C 1039.45 1799.02 1062.63 1808.96 1072.72 1803.23 C 1075.2 1799.57 1073.13 1785.08 1073.09 1779.64 C 1072.77 1732.22 1073.96 1684.66 1074 1637.26 L 1074.1 1569.6 C 1074.17 1561.26 1072.66 1541.21 1077.73 1535.85 C 1083.14 1533.27 1086.64 1534.11 1092.65 1535.56 C 1094.52 1536.01 1096.31 1538.52 1096.42 1540.62 C 1097.03 1551.6 1096.32 1575.19 1096.68 1584.6 C 1097.67 1610.61 1094.63 1797.07 1098.08 1805.3 C 1101.89 1806.41 1120.79 1806.46 1124.11 1804.61 C 1125.57 1802.71 1126.51 1801.28 1126.44 1798.74 C 1125.99 1783.15 1125.97 1767.44 1125.96 1751.87 L 1126.39 1646.61 L 1126.83 1312.31 z M 1193.25 1278.95 C 1197.7 1253.6 1196.74 1227.33 1198.16 1201.7 C 1198.31 1198.99 1197.85 1198.21 1195.91 1196.64 L 1194.6 1195.51 C 1190 1195.87 1186.04 1196.55 1181.53 1196.72 C 1180.33 1201.92 1180.09 1202.44 1180.64 1207.5 C 1182.56 1220.74 1180.53 1240.66 1181.58 1253.37 C 1182.26 1261.62 1180.51 1274.5 1186.26 1274.43 C 1184.86 1274.45 1194.17 1279.5 1193.25 1278.95 z" fill="rgb(254,253,253)" fill-opacity="0.454902" transform="translate(0,0)"></path>
<path d="M 1194.6 1195.51 L 1195.91 1196.64 C 1197.85 1198.21 1198.31 1198.99 1198.16 1201.7 C 1196.74 1227.33 1197.7 1253.6 1193.25 1278.95 C 1194.17 1279.5 1184.86 1274.45 1186.26 1274.43 C 1180.51 1274.5 1182.26 1261.62 1181.58 1253.37 C 1180.53 1240.66 1182.56 1220.74 1180.64 1207.5 C 1180.09 1202.44 1180.33 1201.92 1181.53 1196.72 C 1190.68 1203.74 1180.96 1208.08 1183.56 1210.24 C 1185.84 1209.13 1184.5 1207.31 1188.49 1209.46 C 1194.42 1212.65 1190.82 1207.92 1191.02 1204.49 C 1191.07 1203.55 1190.35 1199.6 1190.37 1199.38 C 1195.76 1196.73 1191.19 1208.96 1193.78 1208.84 C 1195.02 1207.4 1195.14 1197.89 1194.6 1195.51 z M 1188.05 1267.13 C 1188.17 1268.21 1188.2 1268.95 1189.44 1269.03 C 1193.16 1267.12 1191.18 1242.81 1189.87 1238.45 C 1188.55 1234.02 1190.63 1213.91 1188.88 1211.68 C 1188.66 1212.56 1188.17 1216.49 1187.01 1216.42 C 1186.33 1215.67 1186.56 1214.42 1186.36 1213.5 C 1185.87 1213.99 1185.96 1215.33 1185.96 1215.98 L 1185.99 1218 C 1186.07 1228.3 1184.83 1237.72 1187.63 1247.74 C 1187.88 1248.65 1188.04 1265.04 1188.05 1267.13 z" fill="rgb(254,253,253)" fill-opacity="0.113725" transform="translate(0,0)"></path>
<path d="M 1188.88 1211.68 C 1190.63 1213.91 1188.55 1234.02 1189.87 1238.45 C 1191.18 1242.81 1193.16 1267.12 1189.44 1269.03 C 1188.2 1268.95 1188.17 1268.21 1188.05 1267.13 C 1188.04 1265.04 1187.88 1248.65 1187.63 1247.74 C 1184.83 1237.72 1186.07 1228.3 1185.99 1218 L 1185.96 1215.98 C 1185.96 1215.33 1185.87 1213.99 1186.36 1213.5 C 1186.56 1214.42 1186.33 1215.67 1187.01 1216.42 C 1188.17 1216.49 1188.66 1212.56 1188.88 1211.68 z" fill="rgb(254,253,253)" fill-opacity="0.137255" transform="translate(0,0)"></path>
<path d="M 1181.53 1196.72 C 1186.04 1196.55 1190 1195.87 1194.6 1195.51 C 1195.14 1197.89 1195.02 1207.4 1193.78 1208.84 C 1191.19 1208.96 1195.76 1196.73 1190.37 1199.38 C 1190.35 1199.6 1191.07 1203.55 1191.02 1204.49 C 1190.82 1207.92 1194.42 1212.65 1188.49 1209.46 C 1184.5 1207.31 1185.84 1209.13 1183.56 1210.24 C 1180.96 1208.08 1190.68 1203.74 1181.53 1196.72 z" fill="rgb(254,253,253)" fill-opacity="0.0509804" transform="translate(0,0)"></path>
<path d="M 504.967 883.336 C 516.973 884.746 523.37 881.392 531.056 888.484 C 533.395 894.069 531.176 1101.28 531.273 1126.5 C 531.309 1135.83 531.966 1145.02 532.333 1154.32 C 524.211 1157.18 510.134 1160.55 502.095 1155.7 C 498.03 1153.25 499.229 1137.03 499.104 1131.88 C 498.733 1118.31 498.463 1104.74 498.292 1091.16 L 497.518 948.439 C 497.486 932.243 499.656 904.238 496.232 890.202 C 499.917 887.995 501.721 886.206 504.967 883.336 z" fill="rgb(110,74,204)" transform="translate(0,0)"></path>
<path d="M 1522.3 883.386 C 1527.4 883.346 1543.74 883.303 1547.76 884.763 C 1547.55 889.414 1547.35 890.727 1546.74 895.07 C 1545.18 906.187 1545.6 919.398 1545.6 930.764 L 1545.67 989.364 L 1546 1072.79 C 1545.9 1095.54 1545.19 1120.01 1546.01 1142.5 C 1547.83 1144.35 1547.96 1144.38 1550.04 1145.95 C 1551.12 1149.45 1550.52 1151.63 1551.19 1155.28 C 1546.61 1157.06 1519.17 1159.64 1518.71 1152.17 C 1517.69 1135.68 1518.04 1118.46 1518.07 1101.9 L 1518.37 981.782 L 1518.33 915.955 C 1518.32 903.409 1515.62 894.088 1522.3 883.386 z" fill="rgb(110,74,204)" transform="translate(0,0)"></path>
<path d="M 1630.01 932.347 C 1635.11 932.591 1638.31 933.221 1643.63 932.768 C 1653.35 931.938 1654.29 933.72 1659.54 940.416 C 1658.16 947.761 1658.36 953.844 1658.38 961.281 C 1658.45 1002.09 1659.32 1042.92 1657.96 1083.71 C 1657.7 1091.67 1659.18 1099.55 1658.17 1107.28 C 1658.17 1107.28 1655.35 1111.12 1655.08 1111.48 C 1650.83 1113.74 1633.19 1112.74 1628.32 1109.98 C 1623.3 1107.14 1626.44 1094.78 1626.3 1089.03 C 1625.43 1052.04 1625.33 1015.04 1625.33 978.038 C 1625.34 964.369 1626.12 952.191 1623.21 938.705 C 1625.78 936.582 1627.64 934.704 1630.01 932.347 z" fill="rgb(110,74,204)" transform="translate(0,0)"></path>
<path d="M 424.157 1103.71 C 426.248 1116.42 394.641 1115.43 389.673 1106.05 C 391.621 1090.19 391.081 1074.62 391.166 1058.56 L 391.237 977.356 C 391.303 968.637 390.89 945.486 393.198 938.307 C 394.589 936.938 395.928 935.231 398.158 935.237 C 403.453 935.251 418.476 934.613 422.463 937.063 C 424.683 940.417 424.027 939.158 424.276 943.594 C 420.603 944.422 419.851 943.919 417.643 946.157 C 417.887 961.584 416.591 1092.43 419.175 1095.41 C 421.532 1098.12 423.367 1100.1 424.157 1103.71 z" fill="rgb(110,74,204)" transform="translate(0,0)"></path>
<path d="M 345.133 965.875 C 352.647 965.834 364.73 965.444 370.051 970.713 C 372.121 979.043 370.146 1034.96 370.609 1047.66 C 370.677 1051.82 370.347 1056.67 370.787 1060.75 C 371.89 1070.97 376.308 1073.12 367.486 1080.45 C 358.294 1079.97 351.394 1080.01 342.165 1080.28 C 341.084 1078.85 338.884 1076.05 338.828 1074.2 C 337.817 1040.29 337.243 1006.2 338.656 972.306 C 338.765 969.691 343.129 967.192 345.133 965.875 z" fill="rgb(110,74,204)" transform="translate(0,0)"></path>
<path d="M 1358.03 828.197 C 1358.48 827.879 1360.88 826.127 1361.74 826.022 C 1369.83 825.033 1379.21 825.745 1387.48 824.974 C 1389.17 825.865 1390.52 826.581 1391.54 827.12 C 1395.35 849.17 1391.19 891.148 1390.91 915.23 C 1390.8 978.793 1391.04 1042.36 1391.62 1105.92 C 1391.91 1122.27 1392.04 1138.63 1392.03 1154.99 C 1392 1165.73 1389.77 1190.4 1396.38 1197.96 C 1399.09 1198.95 1397.74 1198.84 1400.58 1198.31 C 1405.26 1190.96 1405.54 1181.28 1405.73 1172.77 C 1406.25 1150.22 1406.37 1127.59 1406.56 1105.04 L 1406.43 940.452 C 1406.16 914.789 1404.24 879.333 1405.26 854.659 C 1405.57 853.401 1405.6 842.869 1405.62 840.721 C 1408.88 827.518 1422.54 835.507 1432 833.815 C 1433.96 833.464 1435.1 833.469 1436.93 834.232 L 1437.15 835.764 C 1431.6 835.632 1412.82 835.364 1408.85 837.633 C 1407.55 846.505 1408.19 874.56 1408.22 884.948 L 1408.49 979.552 L 1408.39 1139.03 C 1408.34 1159.25 1407.2 1187.36 1407.82 1206.81 C 1414.45 1206.89 1433.51 1207.95 1438.4 1205.06 C 1440.13 1195.93 1439.56 1172.11 1439.56 1161.85 L 1439.57 1085.04 C 1439.56 1009.74 1439.8 934.352 1438.77 859.052 C 1438.67 851.743 1438.85 844.63 1438.34 837.309 C 1440.71 839.527 1440.65 839.503 1440.75 844.012 C 1441.2 865.119 1441.11 886.379 1441.24 907.493 C 1441.63 947.466 1441.76 987.441 1441.64 1027.42 L 1441.04 1146.71 C 1441 1155.7 1442.42 1201.79 1439.17 1206.62 C 1430.35 1210.99 1406.6 1208.73 1396.49 1207.08 L 1389.23 1213.1 C 1382.53 1212.98 1360.85 1214.14 1356.54 1211.28 C 1353.45 1202.58 1356.37 1095.91 1355.32 1078.48 C 1354.93 1072.01 1356.12 1056.14 1354.57 1048.54 C 1354.19 1046.7 1353.03 1045.68 1351.35 1045.09 C 1348.53 1044.1 1344.36 1043.62 1341.34 1043.16 C 1346.16 1041.63 1357.29 1042.16 1357.42 1049.4 C 1358.4 1103.24 1356.42 1157.53 1357.56 1211.33 C 1364.66 1211.54 1384.09 1212.96 1389.21 1209.34 C 1390.72 1197.61 1388.83 1175.56 1388.97 1162.43 C 1389.88 1077.23 1386.73 991.282 1388.52 906.137 L 1389.58 856.592 C 1389.64 852.846 1390.81 830.365 1388.06 829.138 C 1382.21 826.536 1364.94 827.472 1358.03 828.197 z" fill="rgb(254,253,253)" fill-opacity="0.560784" transform="translate(0,0)"></path>
<path d="M 1679.01 968.564 C 1680.25 967.964 1681.76 965.619 1683.29 965.308 C 1691.3 963.674 1703.08 964.56 1710.26 968.458 C 1709.68 970.762 1709.77 970.632 1709.92 973.062 C 1709.99 974.122 1709.64 974.913 1708.9 975.694 C 1708.37 976.263 1707.7 976.277 1706.97 976.276 C 1706.66 976.275 1706.37 976.324 1706.14 976.551 C 1704.66 977.976 1705.59 984.533 1705.74 986.492 C 1706.56 997.321 1703.12 1061.9 1707.49 1065.54 C 1708.87 1066.69 1710.33 1067.01 1712.03 1067.46 C 1712.27 1071.42 1712.89 1073.83 1710.94 1077.21 C 1704.75 1082.91 1685.6 1081.43 1678.77 1077.94 C 1678.23 1074.14 1679.14 1060.11 1679.12 1054.75 L 1679.05 994.281 C 1679.02 987.793 1678.05 973.677 1679.01 968.564 z" fill="rgb(110,74,204)" transform="translate(0,0)"></path>
<path d="M 1394.84 833.771 L 1397.76 833.379 C 1400.38 836.621 1399.99 856.308 1400.1 861.841 L 1400.19 860.497 C 1400.55 855.737 1401.86 843.461 1405.62 840.721 C 1405.6 842.869 1405.57 853.401 1405.26 854.659 C 1404.67 855.23 1403.79 856.044 1403.29 856.656 C 1403.24 856.714 1401.73 858.776 1401.64 859.032 C 1400.93 860.953 1402.11 1034.31 1403.04 1046.49 L 1403.27 1044.12 C 1403.67 1046.55 1403.96 1048.99 1404.15 1051.45 C 1406.76 1082.23 1401.12 1152.17 1400.45 1186.71 C 1400.02 1187.22 1399.59 1187.73 1399.15 1188.23 L 1396.44 1188.27 C 1395.35 1173.41 1395.93 1160.09 1395.42 1145.49 C 1393.72 1097.44 1394.46 1049.02 1394.4 1000.85 L 1394.4 893.031 C 1394.42 874.925 1393.8 851.531 1394.84 833.771 z" fill="rgb(254,253,253)" fill-opacity="0.0117647" transform="translate(0,0)"></path>
<path d="M 797.026 1187.62 C 799.304 1196.65 798.277 1199.63 798.514 1208.84 C 798.552 1207.63 799.445 1203.77 799.277 1201.48 C 798.765 1194.48 800.004 1186.51 801.172 1179.51 C 802.246 1173.06 805.05 1169.71 802.166 1163.02 C 797.601 1151.56 807.492 1149.69 805.672 1161.49 C 804.798 1167.16 805.335 1181.78 809.164 1186.51 C 810.261 1186.77 810.442 1184.38 810.719 1183.6 L 810.788 1183.57 C 811.034 1184.84 811.129 1187.75 812.301 1188.5 C 815.451 1185.92 814.915 1164.81 816.152 1159 L 816.496 1157.34 C 816.561 1157.05 816.626 1156.76 816.691 1156.47 C 816.845 1174.69 816.063 1207.35 817.752 1224.51 C 817.932 1258.58 817.848 1292.65 817.498 1326.72 L 817.079 1324.78 C 814.543 1312.68 815.8 1293.02 805.496 1284.58 L 803.934 1284.87 C 802.549 1287.05 801.546 1288.16 801.755 1290.85 C 799.576 1305.49 798.187 1320.22 797.594 1335.01 C 796.13 1288.03 796.668 1234.83 797.026 1187.62 z" fill="url(#Gradient2)" transform="translate(0,0)"></path>
<path d="M 1391.54 827.12 C 1394.37 829.525 1394.16 828.946 1394.84 833.771 C 1393.8 851.531 1394.42 874.925 1394.4 893.031 L 1394.4 1000.85 C 1394.46 1049.02 1393.72 1097.44 1395.42 1145.49 C 1395.93 1160.09 1395.35 1173.41 1396.44 1188.27 L 1399.15 1188.23 C 1399.59 1187.73 1400.02 1187.22 1400.45 1186.71 C 1401.12 1152.17 1406.76 1082.23 1404.15 1051.45 C 1403.96 1048.99 1403.67 1046.55 1403.27 1044.12 L 1403.04 1046.49 C 1402.11 1034.31 1400.93 860.953 1401.64 859.032 C 1401.73 858.776 1403.24 856.714 1403.29 856.656 C 1403.79 856.044 1404.67 855.23 1405.26 854.659 C 1404.24 879.333 1406.16 914.789 1406.43 940.452 L 1406.56 1105.04 C 1406.37 1127.59 1406.25 1150.22 1405.73 1172.77 C 1405.54 1181.28 1405.26 1190.96 1400.58 1198.31 C 1397.74 1198.84 1399.09 1198.95 1396.38 1197.96 C 1389.77 1190.4 1392 1165.73 1392.03 1154.99 C 1392.04 1138.63 1391.91 1122.27 1391.62 1105.92 C 1391.04 1042.36 1390.8 978.793 1390.91 915.23 C 1391.19 891.148 1395.35 849.17 1391.54 827.12 z" fill="rgb(254,253,253)" fill-opacity="0.0431373" transform="translate(0,0)"></path>
<path d="M 525.049 1161.56 C 497.496 1160.27 494.63 1165.49 494.225 1132.44 C 493.989 1113.24 493.283 1091.08 491.162 1071.86 C 491.038 1073.88 491.143 1078.66 490.104 1079.8 C 488.946 1076.25 488.583 1072.18 488.565 1068.47 C 488.4 1034.8 488.554 1000.55 488.511 966.955 C 488.5 957.92 487.505 913.219 489.145 907.588 L 491.537 909.029 C 493.413 902.667 487.816 891.039 498.108 882.526 C 504.944 880.175 520.707 881.118 528.158 882.861 C 530.572 883.426 530.591 886.229 531.056 888.484 C 523.37 881.392 516.973 884.746 504.967 883.336 C 501.721 886.206 499.917 887.995 496.232 890.202 C 499.656 904.238 497.486 932.243 497.518 948.439 L 498.292 1091.16 C 498.463 1104.74 498.733 1118.31 499.104 1131.88 C 499.229 1137.03 498.03 1153.25 502.095 1155.7 C 510.134 1160.55 524.211 1157.18 532.333 1154.32 C 530.78 1158.2 528.666 1159.04 525.049 1161.56 z" fill="rgb(254,253,253)" fill-opacity="0.0901961" transform="translate(0,0)"></path>
<path d="M 283.89 996.603 C 286.924 994.95 287.816 991.193 292.462 991.149 C 305.66 991.025 307.695 989.843 319.752 994.369 C 317.894 1011.03 316.517 1028.92 319.144 1045.49 C 320.8 1055.94 298.041 1052.16 290.63 1053.16 L 290.183 1052.92 C 282.626 1048.91 281.763 1050.88 282.844 1040.5 C 284.325 1026.3 283.822 1011.03 283.89 996.603 z" fill="rgb(110,74,204)" transform="translate(0,0)"></path>
<path d="M 1755.5 990.431 C 1762.96 990.717 1765.92 992.211 1765.25 999.995 C 1764.79 1005.22 1764.01 1032.57 1764.59 1035 C 1769.65 1056.15 1759.82 1052.37 1742.75 1052.87 C 1738.87 1053.07 1731 1053 1731.21 1047.07 C 1731.97 1030.29 1731.75 1013.72 1731.18 996.953 C 1730.88 988.397 1749.68 991.283 1755.5 990.431 z" fill="rgb(110,74,204)" fill-opacity="0.988235" transform="translate(0,0)"></path>
<path d="M 1547.76 884.763 C 1554.25 891.781 1552.04 902.395 1552.08 912.08 L 1552.25 975.495 L 1552.25 1096.99 C 1552.24 1105.22 1553.07 1150.23 1551.19 1155.28 C 1550.52 1151.63 1551.12 1149.45 1550.04 1145.95 C 1547.96 1144.38 1547.83 1144.35 1546.01 1142.5 C 1545.19 1120.01 1545.9 1095.54 1546 1072.79 L 1545.67 989.364 L 1545.6 930.764 C 1545.6 919.398 1545.18 906.187 1546.74 895.07 C 1547.35 890.727 1547.55 889.414 1547.76 884.763 z" fill="rgb(110,74,204)" fill-opacity="0.980392" transform="translate(0,0)"></path>
<path d="M 849.853 1202.32 C 854.776 1214.13 853.085 1236.5 853.615 1250.78 C 853.834 1247.87 853.939 1246.06 854.545 1243.17 L 857.051 1243.33 L 858.273 1240.27 C 859.394 1246.76 857.486 1261.28 856.751 1268.55 C 855.107 1284.83 853.934 1329.81 860.819 1342.88 L 862.199 1343.46 L 863.365 1342.43 C 863.402 1346.79 862.581 1349.07 864.76 1351.94 C 866.495 1350.96 865.713 1351.64 866.546 1349.11 C 868.972 1362.38 866.506 1387.63 868.721 1397.3 L 868.519 1555.46 C 868.487 1579.59 867.337 1614.7 868.722 1637.82 C 872.635 1639.77 873.057 1640.14 877.286 1640.71 C 870.376 1640.74 867.467 1641.79 867.458 1634.05 L 867.513 1439.64 C 867.523 1428.09 868.188 1377.83 864.841 1369.27 C 860.557 1368.76 860.87 1365.47 855.564 1363.27 C 853.469 1365.54 853.565 1369.38 853.023 1372.99 C 852.436 1376.47 851.811 1386.36 850.429 1388.23 C 847.899 1382.15 849.436 1223.26 849.853 1202.32 z" fill="rgb(254,253,253)" fill-opacity="0.768627" transform="translate(0,0)"></path>
<path d="M 234.257 1000.15 C 239.393 999.643 267.476 997.661 264.038 1005.01 C 259.493 1014.72 268.01 1041.2 262.508 1046.33 L 261.371 1047.41 C 253.044 1048.5 242.726 1047.96 234.449 1047.97 C 230.387 1045.49 227.512 1043.71 229.157 1039.02 C 231.706 1031.76 230.087 1017.99 229.395 1010.99 C 228.732 1004.28 230.065 1004.58 234.257 1000.15 z" fill="rgb(110,74,204)" fill-opacity="0.988235" transform="translate(0,0)"></path>
<path d="M 1792.82 999.321 C 1797.03 998.906 1803.04 1000.02 1806 999.376 C 1811.23 998.243 1819.4 1000.07 1818 1007.44 C 1815.75 1019.24 1818.01 1030.7 1819.55 1042.73 C 1815.73 1046.39 1815.3 1048.41 1810.25 1048.16 C 1801.71 1047.52 1792.86 1048.99 1784.97 1046.21 C 1782.12 1045 1781.21 1042.13 1783.15 1039.59 C 1788.21 1033 1786.22 1020.59 1785.15 1013 C 1784.62 1009.23 1782.32 1006.43 1784.64 1002.71 C 1786.12 1000.35 1790.06 1000.22 1792.82 999.321 z M 1804.41 1016.64 C 1806.51 1016.03 1807.77 1013.9 1807.3 1011.77 C 1806.83 1009.64 1804.78 1008.23 1802.62 1008.56 C 1801.1 1008.8 1799.82 1009.86 1799.33 1011.33 C 1798.83 1012.79 1799.19 1014.41 1800.26 1015.53 C 1801.33 1016.65 1802.93 1017.08 1804.41 1016.64 z" fill="rgb(110,74,204)" fill-opacity="0.988235" transform="translate(0,0)"></path>
<path d="M 1802.62 1008.56 C 1804.78 1008.23 1806.83 1009.64 1807.3 1011.77 C 1807.77 1013.9 1806.51 1016.03 1804.41 1016.64 C 1802.93 1017.08 1801.33 1016.65 1800.26 1015.53 C 1799.19 1014.41 1798.83 1012.79 1799.33 1011.33 C 1799.82 1009.86 1801.1 1008.8 1802.62 1008.56 z" fill="rgb(110,74,204)" fill-opacity="0.933333" transform="translate(0,0)"></path>
<path d="M 604.959 1206.57 L 602.861 1205.62 C 600.949 1202.58 601.971 1145.77 601.956 1135.83 C 601.826 1049.56 601.718 963.258 601.369 876.982 C 601.324 865.991 603.372 855.616 603.614 844.646 L 605.409 844.132 L 606.594 1096.02 L 606.551 1160.75 C 606.532 1175.46 607.196 1192.27 604.959 1206.57 z" fill="rgb(254,253,253)" fill-opacity="0.0156863" transform="translate(0,0)"></path>
<path d="M 1197.73 1194.01 C 1199.02 1194.81 1200.43 1195.15 1200.85 1196.7 C 1200.88 1196.83 1202.95 1533.42 1201 1542.59 C 1200.89 1542.49 1200.77 1542.4 1200.68 1542.28 C 1198.94 1539.81 1199.15 1454.52 1199 1443.03 C 1200.93 1426.86 1197.99 1391.14 1197.54 1373.94 C 1195.79 1363.98 1197.37 1342.71 1189.27 1336.34 C 1180.42 1329.38 1184.43 1314.14 1185.83 1304.76 C 1186.34 1301.32 1190.54 1299.99 1192.79 1299.03 C 1198.24 1286.08 1201.7 1205.08 1197.73 1194.01 z" fill="rgb(254,253,253)" fill-opacity="0.588235" transform="translate(0,0)"></path>
<path d="M 864.67 1207.84 L 865.559 1207.52 L 864.831 1212.76 C 863.959 1219.2 867.733 1328.27 868.887 1332.57 C 869.439 1349.45 869.731 1380.67 868.721 1397.3 C 866.506 1387.63 868.972 1362.38 866.546 1349.11 C 865.713 1351.64 866.495 1350.96 864.76 1351.94 C 862.581 1349.07 863.402 1346.79 863.365 1342.43 L 862.199 1343.46 L 860.819 1342.88 C 853.934 1329.81 855.107 1284.83 856.751 1268.55 C 857.486 1261.28 859.394 1246.76 858.273 1240.27 C 858.875 1231.63 858.225 1221.37 858.828 1213.27 C 858.962 1211.47 861.813 1212.85 864.67 1207.84 z" fill="url(#Gradient1)" transform="translate(0,0)"></path>
<path d="M 1174.75 1641.45 C 1175.81 1640.45 1179.96 1636.57 1180.03 1635.63 C 1181.04 1622.95 1180.64 1602.84 1180.6 1590.65 C 1180.17 1539.72 1180.38 1488.79 1181.23 1437.87 C 1181.44 1414.07 1181.21 1389.91 1183.24 1366.23 C 1183.54 1362.76 1186.39 1359.58 1190.06 1360.25 C 1199.8 1374.13 1196.7 1422.06 1198.86 1441.85 L 1199 1443.03 C 1199.15 1454.52 1198.94 1539.81 1200.68 1542.28 C 1200.77 1542.4 1200.89 1542.49 1201 1542.59 L 1209.79 1547.89 C 1218.94 1546.91 1224.31 1549.72 1230.61 1545.78 C 1231.7 1543.9 1232.61 1542.58 1234.06 1540.96 C 1234.31 1545.32 1234.67 1543.19 1232.26 1547.42 C 1226.8 1551.15 1212.04 1549.77 1204.78 1549.56 C 1202.45 1547.7 1200.33 1545.93 1197.82 1544.3 C 1198.47 1515.76 1198.3 1482.24 1197.39 1453.89 C 1197.11 1445.1 1192.45 1383.05 1190.31 1378.53 L 1189.83 1381.06 L 1188.88 1380.47 L 1188.43 1375.97 C 1188.76 1390.86 1186.26 1403.62 1185.01 1418.48 L 1185.02 1410.03 C 1180.4 1458.26 1183.15 1510.46 1181.62 1558.91 C 1181.21 1571.72 1182.8 1632.04 1180.45 1639.24 C 1177.13 1641.69 1178.95 1640.94 1174.75 1641.45 z" fill="rgb(254,253,253)" fill-opacity="0.160784" transform="translate(0,0)"></path>
<path d="M 424.157 1103.71 C 423.367 1100.1 421.532 1098.12 419.175 1095.41 C 416.591 1092.43 417.887 961.584 417.643 946.157 C 419.851 943.919 420.603 944.422 424.276 943.594 L 424.1 1056.72 C 424.092 1071.31 424.682 1089.57 424.157 1103.71 z" fill="rgb(110,74,204)" fill-opacity="0.980392" transform="translate(0,0)"></path>
<path d="M 812.972 1133.4 C 813.128 1133.39 817.492 1132.94 817.486 1134.03 C 817.321 1163.7 818.759 1194.86 817.752 1224.51 C 816.063 1207.35 816.845 1174.69 816.691 1156.47 C 816.626 1156.76 816.561 1157.05 816.496 1157.34 L 816.152 1159 C 814.915 1164.81 815.451 1185.92 812.301 1188.5 C 811.129 1187.75 811.034 1184.84 810.788 1183.57 L 810.719 1183.6 C 810.442 1184.38 810.261 1186.77 809.164 1186.51 C 805.335 1181.78 804.798 1167.16 805.672 1161.49 C 807.492 1149.69 797.601 1151.56 802.166 1163.02 C 805.05 1169.71 802.246 1173.06 801.172 1179.51 C 800.004 1186.51 798.765 1194.48 799.277 1201.48 C 799.445 1203.77 798.552 1207.63 798.514 1208.84 C 798.277 1199.63 799.304 1196.65 797.026 1187.62 C 796.018 1174.41 797.424 1158.08 796.53 1144.14 C 824.31 1153.52 812.241 1135.75 812.972 1133.4 z" fill="rgb(254,253,253)" fill-opacity="0.772549" transform="translate(0,0)"></path>
<path d="M 969.758 1537.42 C 972.122 1539.92 973.698 1540.66 973.788 1544.02 C 973.998 1551.83 974.09 1560.02 974.18 1567.8 C 974.357 1587.81 974.387 1607.82 974.27 1627.83 C 974.313 1674.59 975.66 1724.89 974.61 1771.5 C 974.547 1773.84 974.391 1776.18 974.14 1778.51 C 972.614 1768.9 972.504 1727.21 972.652 1716.42 C 973.075 1685.67 972.552 1658.41 970.982 1627.55 L 971.305 1642.52 C 968.762 1625.83 970.385 1605.12 969.761 1587.98 C 969.083 1569.33 968.286 1556.05 969.758 1537.42 z" fill="rgb(246,242,252)" fill-opacity="0.027451" transform="translate(0,0)"></path>
<path d="M 849.853 1202.32 C 849.795 1197.75 849.029 1198.29 851.275 1195.68 C 856.704 1193.73 863.146 1195.01 869.155 1195.04 C 869.156 1240.34 869.733 1287.42 868.887 1332.57 C 867.733 1328.27 863.959 1219.2 864.831 1212.76 L 865.559 1207.52 C 866.002 1205.69 868.988 1197.4 864.517 1196.79 C 858.215 1195.92 848.608 1194.62 853.979 1207.01 C 854.995 1209.35 860.954 1205.5 864.67 1207.84 C 861.813 1212.85 858.962 1211.47 858.828 1213.27 C 858.225 1221.37 858.875 1231.63 858.273 1240.27 L 857.051 1243.33 L 854.545 1243.17 C 853.939 1246.06 853.834 1247.87 853.615 1250.78 C 853.085 1236.5 854.776 1214.13 849.853 1202.32 z" fill="rgb(254,253,253)" fill-opacity="0.666667" transform="translate(0,0)"></path>
<path d="M 1710.26 968.458 C 1713.63 970.782 1712.86 999.44 1712.69 1005 L 1711.87 1043.5 C 1711.45 1058.11 1709.91 1052.66 1712.03 1067.46 C 1710.33 1067.01 1708.87 1066.69 1707.49 1065.54 C 1703.12 1061.9 1706.56 997.321 1705.74 986.492 C 1705.59 984.533 1704.66 977.976 1706.14 976.551 C 1706.37 976.324 1706.66 976.275 1706.97 976.276 C 1707.7 976.277 1708.37 976.263 1708.9 975.694 C 1709.64 974.913 1709.99 974.122 1709.92 973.062 C 1709.77 970.632 1709.68 970.762 1710.26 968.458 z" fill="rgb(110,74,204)" fill-opacity="0.968627" transform="translate(0,0)"></path>
<path d="M 1678.77 1077.94 C 1675.96 1077.7 1675.7 1078.01 1673.61 1076.29 C 1674.62 1041.99 1673.71 1005.48 1673.59 971.065 C 1675.09 969.083 1676 969.432 1679.01 968.564 C 1678.05 973.677 1679.02 987.793 1679.05 994.281 L 1679.12 1054.75 C 1679.14 1060.11 1678.23 1074.14 1678.77 1077.94 z" fill="rgb(254,253,253)" fill-opacity="0.0235294" transform="translate(0,0)"></path>
<path d="M 815.142 829.596 C 817.165 848.488 815.195 870.064 815.144 889.001 C 815.089 908.902 819.683 911.896 795.999 906.947 C 797.273 900.028 800.329 893.375 798.841 887.01 C 797.575 881.593 797.939 874.019 798.061 868.343 C 798.703 870.206 802.698 884.931 804.547 885.403 C 809.566 886.683 806.196 891.464 808.51 891.805 C 808.589 888.766 808.16 888.317 809.784 885.545 C 813.406 878.485 812.192 868.93 813.929 860.514 C 815.751 851.688 813.839 839.361 815.142 829.596 z" fill="rgb(254,253,253)" fill-opacity="0.0156863" transform="translate(0,0)"></path>
<path d="M 290.63 1053.16 C 279.182 1054.08 283.111 1054.62 275.481 1048.8 C 270.796 1045.22 269.77 1035.18 274.059 1032.67 C 285.497 1026 268.739 1006.16 280.917 999.571 C 278.297 1000.92 286.073 994.869 283.89 996.603 C 283.822 1011.03 284.325 1026.3 282.844 1040.5 C 281.763 1050.88 282.626 1048.91 290.183 1052.92 L 290.63 1053.16 z" fill="rgb(254,253,253)" fill-opacity="0.027451" transform="translate(0,0)"></path>
<path d="M 1038.75 237.678 C 1035.82 234.913 1038.62 225.922 1037.28 223.509 C 1032.86 215.575 1037.58 193.991 1035.14 187.548 C 1035.13 187.795 1035.16 188.261 1034.97 188.443 C 1029.53 177.878 1034.59 193.729 1024.03 184.09 C 1022.48 182.673 1022.51 171.261 1032.61 176.761 C 1033.38 176.76 1033.73 176.202 1034.45 176.049 C 1036.38 176.913 1038.5 176.568 1040.57 176.655 C 1038.55 188.369 1042.17 229.664 1038.75 237.678 z M 1030.3 183.933 C 1031.31 183.445 1031.98 182.44 1032.04 181.313 C 1032.09 180.187 1031.53 179.121 1030.56 178.536 C 1029.6 177.951 1028.39 177.942 1027.42 178.512 C 1026 179.345 1025.48 181.149 1026.26 182.604 C 1027.03 184.058 1028.81 184.644 1030.3 183.933 z" fill="rgb(110,74,204)" fill-opacity="0.976471" transform="translate(0,0)"></path>
<path d="M 1027.42 178.512 C 1028.39 177.942 1029.6 177.951 1030.56 178.536 C 1031.53 179.121 1032.09 180.187 1032.04 181.313 C 1031.98 182.44 1031.31 183.445 1030.3 183.933 C 1028.81 184.644 1027.03 184.058 1026.26 182.604 C 1025.48 181.149 1026 179.345 1027.42 178.512 z" fill="rgb(110,74,204)" fill-opacity="0.933333" transform="translate(0,0)"></path>
<path d="M 796.53 1144.14 C 793.091 1132.46 804.502 1132.21 812.972 1133.4 C 812.241 1135.75 824.31 1153.52 796.53 1144.14 z M 809.511 1143.21 C 811.066 1143.05 812.23 1141.71 812.165 1140.15 C 812.099 1138.59 810.826 1137.36 809.265 1137.33 C 808.174 1137.32 807.165 1137.91 806.642 1138.87 C 806.118 1139.82 806.167 1140.99 806.769 1141.9 C 807.371 1142.81 808.426 1143.31 809.511 1143.21 z" fill="rgb(254,253,253)" fill-opacity="0.486275" transform="translate(0,0)"></path>
<path d="M 809.265 1137.33 C 810.826 1137.36 812.099 1138.59 812.165 1140.15 C 812.23 1141.71 811.066 1143.05 809.511 1143.21 C 808.426 1143.31 807.371 1142.81 806.769 1141.9 C 806.167 1140.99 806.118 1139.82 806.642 1138.87 C 807.165 1137.91 808.174 1137.32 809.265 1137.33 z" fill="rgb(254,253,253)" fill-opacity="0.356863" transform="translate(0,0)"></path>
<path d="M 864.67 1207.84 C 860.954 1205.5 854.995 1209.35 853.979 1207.01 C 848.608 1194.62 858.215 1195.92 864.517 1196.79 C 868.988 1197.4 866.002 1205.69 865.559 1207.52 L 864.67 1207.84 z" fill="rgb(254,253,253)" fill-opacity="0.298039" transform="translate(0,0)"></path>
<metadata><recraft-signature>{"signed_by": "recraft", "signature_b64": "hdkvooDmCaoJ9nufGvfIXVqASk0b8tYVjsC55qsx1Of0+MV9E40/b1NXOTkJDQbOBy/61GDJghh9CPcEdQKsBg==", "signing_algo": "Ed25519", "generation_timestamp": 1772542933, "identifier": "b103b626-c3b4-4e8a-85ec-bd9507c4284b"}</recraft-signature></metadata></svg>